<svg width="24" height="24" viewBox="0 0 24 24" fill="none" xmlns="http://www.w3.org/2000/svg">
<path d="M10.9575 0.0309601C8.68144 0.326262 6.83975 1.19069 5.28184 2.69404C4.07142 3.8645 3.2664 5.29806 2.90154 6.93026C2.80308 7.38127 2.77412 7.76785 2.73358 9.37321C2.68146 11.5423 2.65829 11.6819 2.17181 12.5571C1.96331 12.9329 1.7722 13.1638 1.26254 13.6631C0.31274 14.5974 0.00579149 15.2202 0 16.2457C0 17.1906 0.324323 17.9638 1.03088 18.651C1.5 19.1181 1.89382 19.3544 2.51351 19.5638C2.9247 19.698 2.98262 19.7034 4.72585 19.7302L6.52122 19.7624L6.61967 20.1114C7.1467 21.9906 8.74515 23.4242 10.8301 23.9074C11.3629 24.0309 12.637 24.0309 13.1698 23.9074C14.2934 23.6497 15.2084 23.1557 16.0019 22.3772C16.2683 22.1141 16.6158 21.706 16.7722 21.4644C17.0501 21.0349 17.444 20.0899 17.444 19.8537V19.7356H19.0366C20.8667 19.7356 21.2606 19.6873 21.9613 19.3705C22.2914 19.2202 22.5115 19.0644 22.888 18.7155C23.664 17.996 24.0057 17.2336 23.9999 16.2188C23.9941 15.2255 23.6756 14.5812 22.7663 13.69C22.1177 13.0618 21.8513 12.6913 21.5965 12.1115C21.3185 11.4511 21.2663 11.0591 21.2663 9.4967C21.2663 7.9665 21.1968 7.27926 20.9768 6.47389C20.3339 4.1437 18.5386 2.05511 16.2335 0.954447C14.8957 0.315523 13.7316 0.0363293 12.2316 0.00411606C11.7393 -0.00662231 11.166 0.00411606 10.9575 0.0309601ZM13.5637 1.85109C14.9884 2.15176 16.1351 2.73699 17.1891 3.7088C18.0463 4.49806 18.6718 5.42155 19.0308 6.4202C19.332 7.27389 19.3609 7.5155 19.4131 9.53428C19.4536 11.188 19.471 11.4994 19.5752 11.8752C19.9111 13.0833 20.4266 13.9369 21.388 14.8497C21.9787 15.4135 22.1524 15.7356 22.1524 16.2403C22.1467 16.9168 21.747 17.545 21.1273 17.8457L20.832 17.9906H12H3.16794L2.87258 17.8457C1.9749 17.4054 1.58687 16.3477 2.02123 15.5101C2.07335 15.4027 2.32818 15.1128 2.59459 14.8551C3.23744 14.2269 3.34169 14.1088 3.66601 13.6094C3.98454 13.1101 4.24516 12.5195 4.41891 11.8806C4.52894 11.494 4.54632 11.2041 4.58686 9.50744C4.6274 7.85912 4.65057 7.51013 4.74902 7.11818C5.28184 5.03497 6.69496 3.37055 8.72777 2.43095C9.49804 2.07659 10.2625 1.86183 11.2181 1.7276C11.6177 1.67391 13.083 1.74907 13.5637 1.85109ZM15.4633 20.0416C14.9652 21.2873 13.6216 22.2161 12.1969 22.2967C10.6737 22.3879 9.09843 21.4322 8.55403 20.0846L8.40924 19.7356H12H15.5907L15.4633 20.0416Z" fill="#D7A53F"/>
</svg>
