<svg width="30" height="30" viewBox="0 0 30 30" fill="none" xmlns="http://www.w3.org/2000/svg">
<path d="M13.271 0.11047C12.6733 0.282394 11.8705 0.790354 11.6655 1.11857C11.5365 1.32957 11.56 1.7125 11.7123 1.88442C11.9057 2.0876 12.0405 2.06416 12.5678 1.7125C13.1772 1.30613 13.6167 1.16546 14.2671 1.16546C14.8706 1.16546 15.4976 1.36083 15.9605 1.69687C16.8687 2.3533 17.5192 3.74433 17.5192 5.01814V5.49483L17.3609 5.29165C16.9391 4.76806 16.6109 4.77588 16.1129 5.32291L15.9078 5.54172H14.7007C13.3882 5.54172 13.0307 5.59643 12.5561 5.89339C12.187 6.1122 11.6479 6.76864 11.4428 7.24534C11.2436 7.6986 11.0736 8.44881 11.0736 8.87862C11.0736 9.22247 11.0736 9.22247 10.8861 9.19903C10.7045 9.17558 10.6869 9.14433 10.5814 8.66763C10.4994 8.27689 10.4701 7.89396 10.4642 7.02653C10.4584 5.72928 10.5521 5.15099 10.9623 3.96314C11.1791 3.33796 11.1908 3.25982 11.1205 3.06445C11.0268 2.79875 10.7807 2.67371 10.5639 2.7753C10.3705 2.86126 10.0892 3.57241 9.84899 4.56488C9.46812 6.12783 9.4564 7.78456 9.81384 9.27718L9.94861 9.85547L9.80798 10.129C9.19272 11.3403 9.75524 12.9892 10.8744 13.2314C11.1088 13.2861 11.1147 13.3018 11.185 13.6925C11.3197 14.4974 11.7065 15.3727 12.228 16.0838L12.7143 16.7403V17.2717C12.7143 17.7327 12.6967 17.8187 12.5971 17.889C12.4565 17.9906 11.6713 18.8737 11.5541 19.0612C11.5131 19.1238 11.4545 19.3191 11.4135 19.4911C11.3549 19.7802 11.2729 19.874 10.3178 20.7414C9.68493 21.3119 9.12827 21.8902 8.87631 22.2262L8.46614 22.7811L8.05597 22.5623C7.83331 22.445 7.429 22.2497 7.16532 22.1324C6.70241 21.9293 6.67897 21.9058 6.67897 21.6948C6.67897 21.5073 6.75515 21.3666 7.05984 20.9993C7.44657 20.5226 7.80401 19.7333 7.88604 19.1707C7.9212 18.9284 7.93878 18.905 8.12628 18.905C8.65364 18.905 9.2103 18.4204 9.40367 17.7953C9.55602 17.2951 9.53844 16.6465 9.35679 16.2089C9.2103 15.865 9.2103 15.8338 9.2396 14.7084C9.27476 13.3174 9.20444 12.7938 8.83529 11.8404C8.1966 10.2071 6.87234 9.13651 5.48362 9.13651C4.89767 9.13651 4.46992 9.26936 3.74919 9.66791C3.4445 9.83984 3.05777 10.0352 2.88784 10.1055C1.90929 10.5354 1.15341 11.7779 1.07138 13.1064C1.04794 13.4581 1.07724 14.0442 1.14169 14.7162L1.25302 15.7712L1.09481 16.1854C0.631909 17.4045 1.28232 18.905 2.27259 18.905H2.50111L2.61244 19.3895C2.74721 19.9834 3.06363 20.6555 3.3859 21.0227C3.59685 21.265 3.632 21.351 3.632 21.6089V21.9136L3.05777 22.1715C1.78038 22.7576 1.49326 23.039 1.63389 23.5391C1.75108 23.9377 1.99719 24.0002 2.46595 23.7267C2.64174 23.6251 3.00503 23.4375 3.26871 23.3203C3.73162 23.1093 3.76677 23.1015 3.81951 23.2343C4.19452 24.1252 5.05002 24.5316 5.72972 24.1408C6.01098 23.9767 6.45045 23.4531 6.51491 23.1952C6.53834 23.1093 6.6321 23.1249 7.03641 23.3125C7.30595 23.4375 7.65166 23.6016 7.79815 23.6876L8.06769 23.8361L7.9505 24.3596C7.84502 24.8285 7.83331 25.1099 7.82745 27.173L7.82159 29.4705L7.96222 29.619C8.12628 29.7909 8.36653 29.8143 8.53059 29.6581C8.63607 29.5565 8.64192 29.408 8.67708 27.2511C8.70638 25.0239 8.71224 24.9458 8.85873 24.4222C9.04623 23.7657 9.37437 23.1249 9.69079 22.7733C9.98962 22.4528 11.7241 20.8586 11.7826 20.8586C11.8002 20.8586 12.0112 21.1947 12.2397 21.601C12.8491 22.6795 13.0014 22.742 13.9448 22.3434C14.2495 22.2184 14.5073 22.109 14.5132 22.109C14.5191 22.109 14.5366 23.8126 14.5425 25.8913C14.5601 29.4861 14.5659 29.6815 14.6714 29.8378C14.8179 30.0488 15.1343 30.0566 15.2925 29.8456C15.4039 29.6971 15.4097 29.5877 15.4097 25.8913C15.4097 22.3122 15.4156 22.1012 15.5152 22.1403C16.1773 22.4216 16.6344 22.5779 16.775 22.5779C17.0973 22.5779 17.3082 22.3591 17.7301 21.601C17.9528 21.1947 18.1578 20.8586 18.1813 20.8586C18.2106 20.8586 18.6735 21.265 19.2184 21.7573C20.2438 22.7029 20.695 23.25 20.9177 23.8282C21.2283 24.641 21.2341 24.6722 21.2693 27.1339L21.2986 29.4705L21.4392 29.619C21.615 29.8143 21.8845 29.8065 22.0369 29.6033C22.1541 29.4471 22.1541 29.3845 22.1306 27.0479C22.1189 25.7272 22.0955 24.5785 22.0837 24.5003C22.0662 24.3675 22.1775 24.2815 22.8221 23.9298C23.3025 23.6641 23.5897 23.5469 23.6072 23.6016C23.66 23.8204 24.0233 24.2581 24.2869 24.4222C24.8788 24.7895 25.5995 24.555 25.9921 23.8595L26.1737 23.5391L26.9355 23.9377C27.7441 24.3753 28.0195 24.6019 28.3066 25.0942C28.6113 25.61 28.7226 26.1023 28.7636 27.173C28.8047 28.2514 28.8457 28.3608 29.2148 28.3608C29.5312 28.3608 29.6484 28.0795 29.6484 27.3136C29.6484 25.8445 29.3789 24.8598 28.7519 24.0314C28.3359 23.4688 28.166 23.3359 27.0995 22.7654L26.3378 22.3591L26.3202 22.0856C26.3085 21.8667 26.3261 21.7886 26.4315 21.7183C26.5019 21.6636 26.6659 21.4916 26.8007 21.3275C27.0292 21.0462 27.0585 21.0384 27.5566 20.9915C28.0019 20.9602 28.1425 20.9133 28.5 20.6711C29.3965 20.085 30.0059 18.819 30 17.5374C29.9942 16.9356 29.9121 16.5449 29.4727 15.1773C29.2441 14.4896 29.0273 13.6769 28.9805 13.3799C28.7988 12.2468 28.4824 11.4262 27.9082 10.6135C27.1464 9.54288 26.2265 8.98022 25.0956 8.9177C24.2752 8.87081 23.7361 9.01929 23.033 9.48817C22.4177 9.90236 21.8494 10.5666 21.4802 11.3168C21.1345 12.0045 20.9939 12.4578 20.8532 13.2861C20.7946 13.6691 20.572 14.4896 20.3317 15.2164C19.8571 16.6934 19.7516 17.2873 19.8513 18.0453C20.0798 19.7489 21.1638 21.0149 22.3943 21.0149C22.7107 21.0149 22.7693 21.0384 22.9627 21.2728C23.0799 21.4135 23.2322 21.5854 23.3084 21.6557C23.4197 21.7573 23.4432 21.8355 23.4256 22.0699L23.408 22.3591L22.5584 22.8201C21.8025 23.2265 21.7029 23.2656 21.6501 23.1484C21.4919 22.8045 21.029 22.0934 20.8005 21.8355C20.6599 21.6792 20.1032 21.1478 19.5583 20.6555C18.7907 19.9521 18.5739 19.7177 18.5739 19.5848C18.5739 19.2801 18.3629 18.9362 17.818 18.3501L17.2848 17.7718V17.217V16.6621L17.5778 16.3339C18.1051 15.74 18.6208 14.599 18.8083 13.6144C18.8669 13.3018 18.8786 13.2861 19.1891 13.2002C19.7927 13.0361 20.2614 12.4187 20.3845 11.6216C20.4665 11.1449 20.4255 10.7932 20.238 10.2853L20.1032 9.91799L20.279 8.25344C20.4724 6.44823 20.4724 5.95591 20.2731 5.18225C19.945 3.90844 19.1657 2.94723 18.1871 2.61119C17.9586 2.53304 17.8121 2.43927 17.7594 2.32205C17.7125 2.22045 17.4723 1.8766 17.232 1.54839C16.7164 0.868502 16.0953 0.407431 15.3277 0.149544C14.7827 -0.0301952 13.8218 -0.0536385 13.271 0.11047ZM18.609 4.12725C18.9723 4.47892 19.2008 4.84621 19.3591 5.30728C19.5817 5.96372 19.5934 6.31538 19.4587 7.65952C19.2829 9.36314 19.3005 9.26936 19.1071 9.23029C18.9489 9.19903 18.9372 9.16777 18.902 8.73796C18.8493 8.10496 18.7145 7.5423 18.4918 6.98745C18.3454 6.62797 18.3161 6.46387 18.3454 6.28412C18.4039 5.94028 18.4039 4.53362 18.3454 4.18977C18.3161 4.03348 18.3102 3.90063 18.3395 3.90063C18.3629 3.90063 18.486 4.00222 18.609 4.12725ZM17.2145 6.69049C17.6481 7.26097 17.8707 7.78456 17.9821 8.4957C18.0172 8.73796 18.0465 9.72262 18.0465 10.8479C18.0465 12.5359 18.0289 12.8641 17.9293 13.4034C17.6012 15.0914 16.5582 16.2714 15.2163 16.4511C13.8042 16.6387 12.4155 15.2945 12.0405 13.3799C11.9116 12.7157 11.9116 8.76922 12.0463 8.25344C12.1635 7.78456 12.5385 7.22971 12.9135 6.96401C13.2124 6.75301 13.2182 6.75301 14.7359 6.71394L16.2652 6.67486L16.4937 6.41698C16.6226 6.28412 16.7457 6.1669 16.7691 6.1669C16.7984 6.1669 16.9977 6.40135 17.2145 6.69049ZM25.7518 10.1915C26.2851 10.3791 26.7655 10.762 27.2167 11.3637C27.7089 12.0202 27.9609 12.6531 28.125 13.6456C28.1953 14.0754 28.4004 14.8178 28.664 15.6228C29.0683 16.8497 29.0918 16.9434 29.0918 17.4983C29.0918 18.2251 28.8984 18.819 28.5 19.2879C28.2714 19.5536 27.6913 19.9209 27.6269 19.8349C27.621 19.8193 27.6503 19.5458 27.7031 19.2332C27.791 18.6861 27.791 18.6627 27.6738 18.4517C27.5917 18.3032 27.4921 18.2329 27.3456 18.2173C27.0761 18.186 26.9179 18.4048 26.8652 18.8893C26.7069 20.3038 25.6288 21.351 24.5916 21.0931C23.9002 20.9133 23.3904 20.3898 23.0916 19.5379C22.9451 19.1159 22.9392 19.0534 22.9217 17.342C22.9041 16.2167 22.9217 15.4196 22.9685 15.1226C23.0389 14.6537 23.2498 13.9817 23.326 13.9817C23.3494 13.9817 23.4959 14.0832 23.6541 14.2161C24.2459 14.7006 25.0721 14.9116 26.4726 14.9194H26.8944V15.6931C26.8944 16.623 26.9765 16.8262 27.3339 16.8262C27.7089 16.8262 27.7734 16.6387 27.7734 15.5133C27.7734 13.8722 27.7031 13.7941 26.0741 13.7238C24.8553 13.6613 24.4803 13.5597 24.0115 13.1377C23.8826 13.0204 23.7068 12.8641 23.619 12.7938C23.4256 12.6219 23.0975 12.6141 22.9158 12.7782C22.7107 12.9736 22.3357 13.7941 22.1951 14.3646C22.0837 14.8178 22.0662 15.107 22.0427 16.795C22.0252 18.3657 22.0369 18.8034 22.113 19.2488C22.1658 19.5458 22.1951 19.8036 22.1775 19.8271C22.1306 19.8974 21.6384 19.6083 21.3865 19.366C20.8884 18.8893 20.613 17.9437 20.7302 17.1544C20.7654 16.9278 20.9646 16.2245 21.1697 15.5837C21.3806 14.9351 21.615 14.052 21.697 13.6144C21.7791 13.1689 21.9373 12.5906 22.0427 12.3249C22.4177 11.3715 23.2557 10.4885 24.0584 10.1915C24.4569 10.0508 25.3299 10.0508 25.7518 10.1915ZM6.20435 10.4259C7.18875 10.7698 7.97394 11.7701 8.26105 13.0361C8.35481 13.4503 8.37824 13.7316 8.36653 14.3802L8.34895 15.1929L8.17316 15.2164C8.02081 15.232 7.98565 15.2008 7.90362 14.9272C7.73369 14.3958 7.6165 14.3411 6.44459 14.2864C5.23752 14.2395 4.86251 14.0989 4.10663 13.4424C3.61442 13.0126 3.46208 12.9657 3.19254 13.1924C2.96987 13.3643 2.66518 14.1223 2.5597 14.7319C2.48353 15.1851 2.47767 15.1929 2.27844 15.1929H2.07922L2.00891 14.5678C1.92101 13.7316 1.92101 13.0673 2.01476 12.7079C2.21399 11.9733 2.66518 11.4184 3.27457 11.1683C3.45622 11.0902 3.80193 10.9183 4.04217 10.7776C4.28241 10.6369 4.59883 10.4728 4.74532 10.4181C5.10275 10.2853 5.82348 10.2853 6.20435 10.4259ZM11.0736 11.1996C11.0736 11.6529 11.0561 12.0358 11.0268 12.0592C10.933 12.1374 10.6107 11.8717 10.5228 11.645C10.3705 11.2543 10.3998 10.9573 10.6283 10.6526C10.7396 10.5041 10.8803 10.3869 10.9506 10.3869C11.0678 10.3869 11.0736 10.4259 11.0736 11.1996ZM19.2243 10.5119C19.4411 10.6526 19.5817 11.0668 19.5348 11.395C19.4938 11.6529 19.2536 11.9889 19.0602 12.0514C18.9254 12.0905 18.9254 12.0827 18.9254 11.2387C18.9254 10.6995 18.9489 10.3869 18.984 10.3869C19.0192 10.3869 19.1305 10.4416 19.2243 10.5119ZM4.56367 15.0835C5.07931 15.3414 5.69457 15.4665 6.42701 15.4665H7.095L7.07742 17.2013C7.05984 18.9284 7.05984 18.9518 6.89578 19.3895C6.59108 20.21 6.04028 20.7023 5.35471 20.7649C4.55195 20.8352 3.91326 20.3507 3.56169 19.3973L3.36832 18.8737L3.35074 17.2091C3.32731 15.6384 3.36246 15.0992 3.50895 14.5912L3.56755 14.3802L3.90154 14.6459C4.08905 14.7944 4.38789 14.9898 4.56367 15.0835ZM2.46009 17.0294V17.7327H2.2843C1.92687 17.7327 1.69835 17.1544 1.87999 16.709C1.93859 16.5527 2.23743 16.3339 2.38978 16.3261C2.44251 16.3261 2.46009 16.5136 2.46009 17.0294ZM8.46028 16.5527C8.63607 16.7559 8.67708 17.006 8.58919 17.3029C8.49544 17.5921 8.34309 17.7327 8.12042 17.7327H7.96808V17.0216V16.3105L8.16144 16.3652C8.26105 16.3964 8.39582 16.4824 8.46028 16.5527ZM16.4058 17.6624V18.0531L15.691 18.5064L14.9702 18.9597L14.2847 18.4986L13.5933 18.0453V17.6858C13.5933 17.3342 13.5933 17.3264 13.7573 17.3811C14.2319 17.5452 14.7066 17.6546 14.9409 17.6546C15.3746 17.6546 16.0718 17.4749 16.3941 17.2717C16.4 17.2717 16.4058 17.4436 16.4058 17.6624ZM13.769 19.4598L14.5308 19.9443V20.421V20.8977L13.8804 21.1556C13.5229 21.2963 13.2241 21.4057 13.2124 21.39C13.2065 21.3744 12.9956 20.9993 12.7436 20.5539L12.2866 19.7411L12.603 19.366C12.7788 19.155 12.937 18.9831 12.9604 18.9831C12.9897 18.9831 13.3471 19.2019 13.769 19.4598ZM17.3551 19.3504C17.5719 19.577 17.6774 19.7411 17.6422 19.7958C17.6188 19.8427 17.4078 20.2256 17.1734 20.6476C16.8101 21.3041 16.734 21.3979 16.6226 21.3666C16.5465 21.3353 16.2535 21.2181 15.9605 21.1009L15.439 20.8821L15.4214 20.4445L15.4039 20.0068L16.1539 19.4989C16.564 19.2175 16.9332 18.9909 16.9625 18.9909C16.9977 18.9831 17.1734 19.1472 17.3551 19.3504ZM5.33713 21.9527H5.80004V22.1871C5.80004 22.7107 5.51292 23.1249 5.14963 23.1249C4.77462 23.1249 4.51094 22.6795 4.51094 22.0387C4.51094 21.8746 4.52852 21.8589 4.69258 21.9058C4.7922 21.9293 5.08517 21.9527 5.33713 21.9527ZM25.4296 22.5544C25.4296 23.3047 24.9081 23.7032 24.5155 23.2578C24.3983 23.1171 24.3514 22.9843 24.3338 22.6795L24.3045 22.2731L24.867 22.2809H25.4296V22.5544Z" fill="#7F7F7F"/>
<path d="M0.41505 24.8129C0.139651 25.2818 0.0400384 25.9539 0.0107406 27.5247C-0.0126976 28.9704 -0.00683809 29.0016 0.122072 29.1892C0.291999 29.4315 0.579118 29.4393 0.737326 29.2126C0.836938 29.0642 0.854517 28.8766 0.883815 27.6263C0.907253 26.4306 0.930691 26.1415 1.04202 25.7429C1.11234 25.4928 1.17093 25.1959 1.17093 25.1021C1.17093 24.6254 0.643573 24.43 0.41505 24.8129Z" fill="#7F7F7F"/>
<path d="M10.4584 25.3519L10.3119 25.5395V27.3056C10.3119 28.9623 10.3177 29.0717 10.4291 29.2202C10.6049 29.4546 10.9154 29.4312 11.0678 29.1733C11.185 28.9779 11.1908 28.8685 11.1908 27.2509V25.5395L11.0443 25.3519C10.9682 25.2425 10.8334 25.1565 10.7514 25.1565C10.6693 25.1565 10.5346 25.2425 10.4584 25.3519Z" fill="#7F7F7F"/>
<path d="M18.9606 25.3209L18.8082 25.4772V27.2746C18.8082 28.9626 18.8141 29.072 18.9254 29.2205C19.1012 29.4549 19.4118 29.4315 19.57 29.1658C19.6872 28.9626 19.693 28.8923 19.6754 27.2043C19.6579 25.4772 19.6579 25.4538 19.5172 25.3053C19.3414 25.1099 19.1539 25.1177 18.9606 25.3209Z" fill="#7F7F7F"/>
</svg>
