<svg width="30" height="30" viewBox="0 0 30 30" fill="none" xmlns="http://www.w3.org/2000/svg">
<path d="M4.42439 0.0626144C3.33208 0.187675 2.31214 0.694505 1.50278 1.49753C0.667093 2.33347 0.199898 3.30763 0.0617141 4.50559C-0.0172484 5.24279 -0.0238286 8.7116 0.0617141 9.50146C0.186738 10.7192 0.634192 11.6407 1.54226 12.5359C2.05552 13.0493 2.23976 13.1875 2.76618 13.4376C3.93087 14.0037 3.64793 13.9773 8.78049 13.9773C13.1168 13.9773 13.3274 13.9708 13.5051 13.8523C13.6038 13.7865 13.7551 13.6351 13.8341 13.5232L13.9788 13.3191V8.77742C13.9788 3.64332 14.0052 3.92636 13.4393 2.76131C13.1892 2.22815 13.0576 2.05043 12.5378 1.54361C11.6166 0.622101 10.7545 0.20084 9.48457 0.0560322C8.80681 -0.022954 5.10215 -0.0163717 4.42439 0.0626144ZM9.8728 2.16233C10.6953 2.41245 11.3007 2.93245 11.6955 3.73547L11.939 4.22914L11.9587 8.09946L11.9785 11.9764L8.10272 11.9566L4.23356 11.9369L3.74005 11.6933C2.93726 11.2984 2.41743 10.6928 2.16738 9.87007C2.04894 9.4883 2.03578 9.25134 2.03578 7.00024C2.03578 4.3147 2.05552 4.13699 2.45033 3.45902C2.64115 3.13649 3.25311 2.5441 3.57554 2.37954C4.19408 2.05702 4.35859 2.03727 6.97751 2.03727C9.26084 2.03069 9.49115 2.04385 9.8728 2.16233Z" fill="#7F7F7F"/>
<path d="M20.4143 0.0560389C18.7693 0.233758 17.2822 1.27374 16.5386 2.78765C15.999 3.89345 16.0188 3.64991 16.0188 8.7906C16.0188 13.2862 16.0188 13.3455 16.157 13.5232C16.2293 13.6219 16.3741 13.7667 16.4728 13.8391C16.6505 13.9774 16.7097 13.9774 21.204 13.9774H25.7575L26.2773 13.826C27.1722 13.5693 27.7842 13.2007 28.4554 12.5293C29.37 11.6144 29.7911 10.7521 29.9359 9.48173C30.0214 8.73136 30.0214 5.25596 29.9359 4.5056C29.8504 3.77497 29.6135 3.05751 29.2647 2.45854C28.9423 1.90563 28.0803 1.03678 27.5473 0.72084C27.0143 0.404895 26.1786 0.135025 25.4943 0.0560389C24.8231 -0.0163651 21.1382 -0.0163651 20.4143 0.0560389ZM25.797 2.13601C26.3234 2.29398 26.6261 2.46512 27.0275 2.8403C27.442 3.24182 27.6657 3.59725 27.8368 4.14357C27.9487 4.5056 27.9618 4.78205 27.9618 7.00024C27.9618 9.25135 27.9487 9.48831 27.8302 9.87007C27.5802 10.6928 27.0604 11.2984 26.2576 11.6933L25.7641 11.9369L21.8949 11.9566L18.0192 11.9764L18.0389 8.09947L18.0586 4.22914L18.3021 3.73548C18.6903 2.94562 19.2957 2.41904 20.1182 2.15576C20.4538 2.05044 20.7631 2.03728 22.9675 2.03728C25.0534 2.03069 25.4943 2.05044 25.797 2.13601Z" fill="#7F7F7F"/>
<path d="M4.26646 16.0574C3.23337 16.2087 2.33846 16.6695 1.53568 17.4659C0.640772 18.3545 0.186738 19.276 0.0617141 20.4937C-0.0238286 21.2836 -0.0172484 24.7524 0.0617141 25.4896C0.199898 26.6876 0.667093 27.6617 1.50278 28.4977C2.36479 29.3534 3.3255 29.8075 4.60863 29.9458C5.04293 29.9918 6.08918 30.005 7.52367 29.9853C9.49115 29.9589 9.82674 29.9392 10.2347 29.8207C11.9916 29.3336 13.3208 28.0238 13.8275 26.2795L13.9788 25.7595V21.2178V16.6761L13.8341 16.472C13.7551 16.3601 13.6038 16.2087 13.5051 16.1429C13.3274 16.0244 13.1103 16.0179 8.97789 16.0113C6.58928 16.0047 4.47045 16.0244 4.26646 16.0574ZM11.9587 21.8958L11.939 25.7661L11.6955 26.2597C11.3007 27.0628 10.6953 27.5828 9.8728 27.8329C9.49115 27.9514 9.25426 27.9645 7.00383 27.9645C4.77972 27.9645 4.50993 27.9514 4.14802 27.8395C3.43078 27.6157 2.68722 27.0167 2.37795 26.4111C2.05552 25.7727 2.03578 25.5949 2.03578 22.9884C2.03578 20.7439 2.04894 20.5069 2.16738 20.1251C2.45691 19.1773 3.14125 18.4796 4.10854 18.1439C4.40465 18.0386 4.80604 18.032 8.20801 18.0254H11.9785L11.9587 21.8958Z" fill="#7F7F7F"/>
<path d="M16.6109 16.0771C16.3411 16.1956 16.0648 16.5313 16.0187 16.7945C15.9989 16.913 15.9858 18.9864 15.9989 21.4152C16.0253 25.7792 16.0253 25.8319 16.1766 26.319C16.4464 27.2207 16.8017 27.8 17.4992 28.4911C18.2099 29.202 18.6968 29.4982 19.6378 29.7812C20.2169 29.9523 20.2695 29.9589 22.4739 29.9918C25.0336 30.0247 25.7969 29.9655 26.626 29.6825C27.3893 29.4192 27.8367 29.1361 28.4619 28.524C29.3502 27.6486 29.7976 26.6941 29.9424 25.3909C29.9885 24.963 30.0016 23.9033 29.9819 22.475C29.949 19.9803 29.9227 19.8092 29.4818 18.8482C28.8172 17.4198 27.4748 16.3864 25.8758 16.0771C25.1783 15.9454 16.9136 15.9454 16.6109 16.0771ZM26.2575 18.3019C27.0603 18.6968 27.5801 19.3024 27.8302 20.1251C27.9486 20.5069 27.9618 20.7439 27.9618 22.9884C27.9618 25.5949 27.942 25.7726 27.6196 26.4111C27.4419 26.76 26.8826 27.3458 26.5273 27.5498C25.8627 27.9448 25.6719 27.9645 22.9937 27.9645C20.7433 27.9645 20.5064 27.9513 20.1247 27.8329C19.3022 27.5827 18.6968 27.0627 18.302 26.2597L18.0586 25.7661L18.0388 21.8957L18.0191 18.0188L21.8948 18.0386L25.764 18.0583L26.2575 18.3019Z" fill="#7F7F7F"/>
</svg>
