<svg width="30" height="30" viewBox="0 0 30 30" fill="none" xmlns="http://www.w3.org/2000/svg">
<path d="M13.7628 0.0812626C11.1186 0.46258 8.92629 1.94678 8.07454 3.92963C7.86715 4.39895 7.66718 5.26718 7.66718 5.66609V5.91248L5.68963 5.93008C3.71949 5.94768 3.70467 5.94768 3.2825 6.10608C2.49 6.3994 1.91229 6.96257 1.74194 7.59615C1.70491 7.75454 1.28273 11.7496 0.808714 16.4779C0.00880675 24.4621 -0.0504456 25.1133 0.0236199 25.6588C0.297662 27.6593 1.94932 29.2139 4.46014 29.8357L5.11192 30H14.9997H24.8874L25.5392 29.8357C28.05 29.2139 29.6943 27.6593 29.9757 25.6588C30.0498 25.1133 29.9979 24.4738 29.1906 16.4779C28.7166 11.7496 28.2944 7.75454 28.2574 7.59615C28.087 6.96257 27.5093 6.3994 26.7168 6.10608C26.2946 5.94768 26.2798 5.94768 24.3171 5.93008L22.3321 5.91248V5.66609C22.3321 5.27304 22.1322 4.39895 21.9396 3.9531C21.2063 2.25184 19.488 0.884962 17.3623 0.31592C16.2217 0.00499916 14.8886 -0.0829964 13.7628 0.0812626ZM16.0144 1.84706C18.0215 2.17558 19.5769 3.40752 19.9917 4.99732C20.0583 5.24371 20.1102 5.54877 20.1102 5.68369V5.91835H14.9997H9.88914V5.68369C9.88914 5.54877 9.94099 5.24371 10.0076 4.99732C10.578 2.80915 13.2739 1.39534 16.0144 1.84706ZM7.66718 8.83396C7.66718 9.87818 7.68199 10.0131 7.82272 10.236C7.97825 10.5 8.42265 10.7288 8.77816 10.7288C9.10405 10.7288 9.55585 10.5059 9.7262 10.2654C9.88174 10.0542 9.88914 9.96031 9.88914 8.85743V7.67828H14.9997H20.1102V8.85743C20.1102 9.96031 20.1176 10.0542 20.2731 10.2654C20.4435 10.5059 20.8953 10.7288 21.2212 10.7288C21.5767 10.7288 22.0211 10.5 22.1766 10.236C22.3173 10.0131 22.3321 9.87818 22.3321 8.83396V7.67828H24.0727C26.1169 7.67828 26.0576 7.66068 26.1317 8.27078C26.1539 8.47611 26.5539 12.3831 27.0057 16.9472C27.7537 24.421 27.8278 25.2893 27.7537 25.6588C27.5019 26.8497 26.2576 27.8998 24.7689 28.1814C24.0579 28.3105 5.94145 28.3105 5.23042 28.1814C3.74171 27.8998 2.49741 26.8497 2.24558 25.6588C2.17152 25.2893 2.24558 24.4152 2.99365 16.9472C3.44545 12.3831 3.8454 8.47611 3.86762 8.27078C3.94168 7.66068 3.88243 7.67828 5.92664 7.67828H7.66718V8.83396Z" fill="#7F7F7F"/>
<path d="M18.74 14.7533C18.6215 14.8002 17.3846 15.7388 15.9995 16.83L13.4813 18.8246L12.5185 18.0619C11.2594 17.0646 10.9409 16.9356 10.2891 17.1878C10.0595 17.2758 9.93358 17.3756 9.82248 17.5574C9.62991 17.8683 9.62991 18.0619 9.80767 18.3435C9.94839 18.5547 12.5629 20.649 12.9258 20.8426C13.1332 20.9482 13.6294 20.9658 13.9405 20.8719C14.2442 20.7839 20.0065 16.214 20.1842 15.9148C20.3768 15.6098 20.3694 15.3868 20.162 15.1053C19.8732 14.7063 19.2362 14.5479 18.74 14.7533Z" fill="#7F7F7F"/>
</svg>
