<svg width="30" height="30" viewBox="0 0 30 30" fill="none" xmlns="http://www.w3.org/2000/svg">
<path d="M4.08395 0.0599766C3.46872 0.206627 2.88865 0.67004 2.60154 1.2625L2.43162 1.6086L2.41404 6.74134L2.40232 11.8741L1.26561 13.018C0.638666 13.6456 0.0996085 14.2205 0.0644526 14.2909C0.017578 14.3789 0 16.0213 0 19.9516C0 25.3365 0.00585932 25.4891 0.117186 25.6709C0.316403 25.9994 0.474605 26.0405 1.48827 26.0405H2.39646L2.41404 27.2254C2.43162 28.3927 2.43748 28.422 2.59568 28.7505C2.82419 29.214 3.20505 29.5894 3.67965 29.8123L4.07223 30H14.9999H25.9275L26.3201 29.8123C26.7947 29.5894 27.1755 29.214 27.4041 28.7505C27.5623 28.422 27.5681 28.3927 27.5857 27.2313L27.6033 26.0405H28.5232C29.3318 26.0405 29.4665 26.0287 29.6306 25.9231C30.0232 25.6885 29.9997 26.0287 29.9997 19.9692C29.9997 15.3995 29.988 14.4493 29.9177 14.2909C29.8708 14.1853 29.3318 13.6046 28.7165 12.9886L27.5974 11.8741V9.11707V6.36005L24.5095 3.26281C22.8045 1.55581 21.3455 0.124502 21.2576 0.0775738C21.1229 0.00718307 19.8807 -0.00454903 12.703 0.00131607C8.06243 0.00718307 4.20699 0.0306473 4.08395 0.0599766ZM20.2205 3.70276C20.2205 5.87317 20.2381 6.77067 20.2908 6.91732C20.3319 7.02877 20.449 7.17542 20.5604 7.25168L20.7596 7.3866H23.824H26.8943V10.6422V13.8979H14.9999H3.10544V7.938C3.10544 3.53851 3.12302 1.91363 3.17575 1.74352C3.30466 1.3153 3.79098 0.863617 4.24801 0.752163C4.34762 0.728701 7.97454 0.711102 12.3222 0.705236L20.2147 0.699369L20.2205 3.70276ZM23.9646 3.72036L26.9236 6.68268H23.9471H20.9764V3.72036C20.9764 2.08961 20.9822 0.75803 20.994 0.75803C20.9998 0.75803 22.3357 2.08961 23.9646 3.72036ZM2.3906 13.411L2.37303 13.8685L1.92186 13.8861C1.66991 13.8979 1.46483 13.8803 1.46483 13.8568C1.46483 13.7981 2.29685 12.9593 2.36131 12.9593C2.38474 12.9593 2.40232 13.1646 2.3906 13.411ZM28.113 13.3875C28.3415 13.6222 28.5349 13.8333 28.5349 13.8568C28.5349 13.8803 28.3298 13.8979 28.0837 13.8861L27.6267 13.8685L27.6091 13.411C27.5974 13.1646 27.615 12.9593 27.6384 12.9593C27.6677 12.9593 27.8787 13.1529 28.113 13.3875ZM29.2966 19.9692V25.3365H14.9999H0.703119V19.9692V14.6018H14.9999H29.2966V19.9692ZM26.8943 27.0435C26.8943 27.6477 26.865 28.1405 26.824 28.2813C26.7361 28.5746 26.367 28.9969 26.0505 29.167L25.8103 29.2961H14.9999H4.18942L3.94918 29.167C3.63278 28.9969 3.26364 28.5746 3.17575 28.2813C3.13474 28.1405 3.10544 27.6477 3.10544 27.0435V26.0405H14.9999H26.8943V27.0435Z" fill="#7F7F7F"/>
<path d="M5.88281 6.51253C5.6543 6.57706 5.49609 6.80583 5.49609 7.0698C5.49609 7.3455 5.64258 7.54495 5.90039 7.6212C6.05273 7.66813 7.25389 7.67986 9.7734 7.66813L13.4296 7.65053L13.5995 7.45696C13.7929 7.23991 13.8222 6.96421 13.6757 6.74717C13.4648 6.44801 13.4531 6.44801 9.62692 6.45387C7.6699 6.45387 5.98242 6.4832 5.88281 6.51253Z" fill="#7F7F7F"/>
<path d="M5.75968 8.84743C5.44328 9.04101 5.3964 9.46336 5.66007 9.73907L5.82413 9.90918H12.3221H18.8201L18.99 9.73907C19.2361 9.49269 19.2244 9.19939 18.9607 8.93542L18.7615 8.73598H12.3573C6.12882 8.73598 5.94132 8.74185 5.75968 8.84743Z" fill="#7F7F7F"/>
<path d="M5.67773 11.1935C5.54297 11.3285 5.50781 11.4164 5.50781 11.61C5.50781 11.8036 5.54297 11.8916 5.67773 12.0265L5.84765 12.1966H12.2753C19.2538 12.1966 18.9374 12.2142 19.0897 11.874C19.1776 11.6804 19.1776 11.5396 19.0897 11.3461C18.9374 11.0058 19.2538 11.0234 12.2753 11.0234H5.84765L5.67773 11.1935Z" fill="#7F7F7F"/>
<path d="M4.93944 17.4704C4.53515 17.6053 4.2539 17.8048 4.05468 18.0863C3.91406 18.2917 3.89648 18.3738 3.89648 18.7668C3.89648 19.1598 3.91406 19.2478 4.06054 19.459C4.32421 19.8637 4.69921 20.0866 5.81834 20.4914C5.97068 20.5501 6.17576 20.6615 6.26951 20.7436C6.41599 20.8668 6.44529 20.9314 6.44529 21.1484C6.44529 21.3772 6.42185 21.4241 6.25779 21.5238C5.94725 21.7115 5.38475 21.6705 5.12694 21.43C5.03905 21.3537 4.96874 21.2012 4.9453 21.0604L4.90429 20.8199H4.28906H3.67383L3.71484 21.0897C3.76172 21.4417 4.00781 21.8934 4.25976 22.087C4.95116 22.6149 6.18162 22.7205 6.96091 22.3216C7.46481 22.0635 7.67575 21.7057 7.67575 21.1308C7.66989 20.3213 7.2363 19.9107 5.81248 19.3827C5.26756 19.1774 5.08007 19.0249 5.08007 18.7727C5.08007 18.1157 6.36326 18.1098 6.45701 18.7668C6.47458 18.9134 6.4863 18.9134 7.07809 18.931L7.67575 18.9486V18.7257C7.66989 18.2213 7.14841 17.6288 6.55076 17.447C6.13474 17.3238 5.32616 17.3355 4.93944 17.4704Z" fill="#7F7F7F"/>
<path d="M13.9862 17.4995C13.4706 17.7165 13.1601 17.9981 12.9198 18.4908C12.3515 19.6582 12.539 21.2537 13.3358 21.9928C13.9921 22.597 14.9765 22.7378 15.7968 22.3507C16.6639 21.94 17.0917 21.0425 17.0331 19.7638C16.9686 18.2386 16.16 17.3587 14.8241 17.3587C14.4315 17.3587 14.2499 17.3939 13.9862 17.4995ZM15.3339 18.4615C15.4335 18.5319 15.5741 18.7255 15.6503 18.8956C15.7675 19.1654 15.785 19.3062 15.785 19.9104C15.7909 20.7551 15.6854 21.1305 15.3749 21.4062C15.1933 21.5588 15.1288 21.5822 14.8124 21.5822C14.4726 21.5822 14.4433 21.5705 14.244 21.3593C14.1269 21.2361 13.9979 21.0308 13.9628 20.9018C13.7694 20.2448 13.828 19.2006 14.08 18.7372C14.2499 18.4322 14.5311 18.2855 14.8886 18.3149C15.0409 18.3266 15.2401 18.3911 15.3339 18.4615Z" fill="#7F7F7F"/>
<path d="M8.08582 17.8869V18.3561H8.81823H9.55065L9.56236 20.421L9.57994 22.4917L10.1835 22.5093L10.7811 22.5269V20.4386V18.3561H11.5428H12.3045V17.8869V17.4176H10.1952H8.08582V17.8869Z" fill="#7F7F7F"/>
<path d="M17.6952 19.9693V22.5269L18.2987 22.5093L18.8964 22.4917L18.9139 21.5942L18.9315 20.7025H19.2479H19.5643L20.0213 21.5942L20.4784 22.4917L21.1405 22.5093C21.4979 22.5151 21.7967 22.5093 21.7967 22.4917C21.7967 22.4741 21.5565 21.9931 21.2577 21.424C20.8827 20.6967 20.742 20.3799 20.8006 20.3623C20.953 20.3095 21.3397 19.9106 21.4627 19.6818C21.6385 19.3358 21.6444 18.5966 21.4627 18.2681C21.2987 17.9572 21.0643 17.7461 20.7127 17.5818C20.4374 17.4528 20.3319 17.4469 19.0604 17.4293L17.6952 17.4058V19.9693ZM20.1913 18.5438C20.3084 18.6553 20.3553 18.7726 20.3729 18.9838C20.4198 19.5411 20.1327 19.764 19.3827 19.764H18.9256V19.0542V18.3444L19.4823 18.3679C19.992 18.3855 20.0506 18.3972 20.1913 18.5438Z" fill="#7F7F7F"/>
<path d="M22.6169 19.0601L23.4372 20.7025V21.6118V22.521H24.0525H24.6677V21.6118V20.7025L25.488 19.0601L26.3083 17.4176H25.6403H24.9782L24.5212 18.5028C24.2224 19.2067 24.0466 19.5645 24.0173 19.5176C23.988 19.4765 23.7771 18.9838 23.5427 18.4265L23.1208 17.4176H22.4587H21.7966L22.6169 19.0601Z" fill="#7F7F7F"/>
</svg>
