<svg width="30" height="30" viewBox="0 0 30 30" fill="none" xmlns="http://www.w3.org/2000/svg">
<path d="M6.38789 0.0865383C5.84715 0.274038 5.38572 0.793268 5.24874 1.36298L5.16222 1.73077H4.43403C3.46792 1.73077 2.97044 1.83173 2.27109 2.16346C1.4708 2.55289 0.829127 3.1875 0.447008 3.98798C0.0937274 4.71635 0.0072098 5.1851 0.0072098 6.28846C0.0072098 7.10336 0.0144196 7.15385 0.187455 7.31971C0.396539 7.53606 0.72098 7.55048 0.951694 7.36298C1.11752 7.23317 1.12473 7.16827 1.16078 6.14423C1.20404 5.07692 1.20404 5.05529 1.4708 4.52164C1.78803 3.8726 2.21341 3.46154 2.87671 3.15144C3.32372 2.94231 3.43187 2.92067 4.28262 2.89904L5.19827 2.87019V10.6659V18.4615H3.17952H1.16078V15.1803V11.8918L0.980533 11.7188C0.74982 11.4808 0.418169 11.4808 0.180245 11.7188L0 11.899L0.0216294 16.4928L0.0432588 21.0938L0.237924 21.5697C0.74261 22.8462 1.55011 23.6034 2.89113 24.0793C3.1651 24.1731 3.79957 24.1947 7.08003 24.2308L10.9373 24.2668L10.4326 26.5529L9.9279 28.8462H9.47368C9.08435 28.8462 8.98341 28.875 8.83922 29.0264C8.6013 29.2572 8.6013 29.5889 8.83922 29.8197L9.01225 30H15.0036H20.9949L21.168 29.8197C21.3843 29.6106 21.3987 29.2861 21.2112 29.0553C21.0959 28.9111 20.9877 28.875 20.584 28.8462L20.0865 28.8101L19.6035 26.6466C19.3367 25.4567 19.1204 24.4255 19.1204 24.3606C19.1132 24.2452 19.3872 24.238 22.956 24.2163L26.7916 24.1947L27.3107 24.0072C28.2913 23.6466 29.1709 22.8534 29.6035 21.9303C30.0072 21.0865 30 21.2885 30 13.0457C30 7.95433 29.9712 5.29327 29.9207 5.00481C29.6467 3.46875 28.2624 2.08414 26.7267 1.8101C26.4816 1.76683 25.2992 1.73077 23.951 1.73077H21.6078L20.7354 0.865385L19.8558 0L13.23 0.00721169C8.81038 0.00721169 6.53208 0.0360584 6.38789 0.0865383ZM19.0411 2.71154C19.0411 4.5649 19.0771 4.72356 19.5818 5.22836C20.0865 5.73317 20.2451 5.76923 22.098 5.76923H23.6554V6.63461V7.5H21.4203C19.3151 7.5 19.1709 7.50721 18.7743 7.65865C18.2192 7.86779 17.6784 8.40865 17.4694 8.96394C17.3252 9.35336 17.3107 9.51202 17.3107 11.1923V13.0096L16.4456 13.8822C15.703 14.6394 15.5804 14.7909 15.5804 14.9928C15.5804 15.1442 15.6453 15.2885 15.7606 15.3966L15.9337 15.5769H19.7981H23.6554V17.0192V18.4615H22.3937C21.1464 18.4615 21.1247 18.4615 20.9517 18.6418C20.7138 18.8726 20.7138 19.2043 20.9517 19.4351L21.1247 19.6154H24.9964H28.8681L28.8248 20.2067C28.7599 21.2596 28.3201 22.0673 27.5487 22.5649C26.7628 23.0769 27.6352 23.0409 15.0036 23.0409C2.37203 23.0409 3.24441 23.0769 2.45854 22.5649C1.68709 22.0673 1.2473 21.2596 1.18241 20.2067L1.13915 19.6154H10.2019H19.2646L19.4376 19.4351C19.6756 19.2043 19.6756 18.8726 19.4376 18.6418L19.2646 18.4615H12.8046H6.35184V9.98798V1.50721L6.53208 1.33414L6.70512 1.15385H12.8767H19.0411V2.71154ZM21.5285 3.31731L22.8262 4.61539H21.6871C20.5768 4.61539 20.5479 4.60817 20.3749 4.4351C20.2019 4.26202 20.1947 4.23317 20.1947 3.13702C20.1947 2.52404 20.2019 2.01923 20.2163 2.01923C20.2235 2.01923 20.8147 2.60336 21.5285 3.31731ZM27.2026 3.1875C27.8587 3.51202 28.2624 3.93029 28.5797 4.60096L28.8104 5.08414L28.832 11.7692L28.8464 18.4615H26.8277H24.8089V17.0192V15.5769H25.0252C25.7462 15.5769 26.6763 14.8774 26.9575 14.113C27.1089 13.7236 27.1161 13.5721 27.1161 11.5385C27.1161 9.50481 27.1089 9.35336 26.9575 8.96394C26.6763 8.19952 25.7462 7.5 25.0252 7.5H24.8089V6.22356V4.95433L23.7851 3.91586L22.7541 2.8774L24.708 2.89904L26.6546 2.92067L27.2026 3.1875ZM25.3136 8.8125C25.5515 8.9351 25.6813 9.0649 25.8039 9.30289C25.9553 9.61298 25.9625 9.69231 25.9625 11.5385C25.9625 13.3846 25.9553 13.4639 25.8039 13.774C25.6813 14.012 25.5515 14.1418 25.3136 14.2572C24.9964 14.4231 24.9892 14.4231 21.2833 14.4231H17.5775L18.0173 13.9615L18.4643 13.5V11.5601C18.4643 9.69231 18.4715 9.61298 18.6301 9.30289C18.7455 9.0649 18.8753 8.9351 19.1132 8.8125C19.4304 8.65385 19.4737 8.65385 22.2134 8.65385C24.9531 8.65385 24.9964 8.65385 25.3136 8.8125ZM18.421 26.6971C18.6446 27.7428 18.8536 28.6514 18.8681 28.7163C18.9041 28.8389 18.6878 28.8462 15.0036 28.8462C11.3194 28.8462 11.1031 28.8389 11.1391 28.7163C11.1536 28.6514 11.3626 27.7428 11.5862 26.6971L12.0043 24.8077H15.0036H18.0029L18.421 26.6971Z" fill="#7F7F7F"/>
<path d="M10.5768 2.423C8.32014 2.97108 6.95749 5.48791 7.74336 7.66579C7.98849 8.34367 8.26247 8.76194 8.77436 9.26675L9.23579 9.71387V12.7211C9.23579 14.4518 9.26463 15.786 9.30068 15.8581C9.40161 16.0384 11.3411 17.3076 11.5213 17.3076C11.7448 17.3076 13.6482 16.0168 13.7563 15.7932C13.8284 15.6562 13.8501 14.8557 13.8501 12.6418V9.67781L14.0664 9.46146C14.3403 9.18021 14.3547 8.86291 14.1024 8.61771C13.8068 8.31483 13.4679 8.40858 12.8984 8.92781L12.6965 9.11531V10.3052V11.5023L12.4586 11.6105C12.0116 11.8196 12.0116 12.411 12.4586 12.6201C12.6604 12.7139 12.6965 12.7643 12.6965 12.9807C12.6965 13.197 12.6604 13.2475 12.4586 13.3413C12.3288 13.4062 12.199 13.536 12.163 13.6442C12.062 13.9326 12.1846 14.2211 12.4586 14.3509C12.6821 14.4518 12.6965 14.4807 12.6965 14.8629V15.2668L12.1341 15.6418C11.8241 15.8437 11.5501 16.0095 11.5141 16.0095C11.4852 16.0095 11.2257 15.8437 10.9301 15.649L10.3894 15.2812V12.2884C10.3894 9.74992 10.3749 9.26675 10.2812 9.08646C10.2163 8.96387 10.137 8.87012 10.101 8.87012C10.0649 8.87012 9.84141 8.68983 9.60349 8.46627C9.30789 8.19223 9.09159 7.91098 8.93298 7.58646C8.70947 7.13935 8.69505 7.06002 8.69505 6.34608C8.69505 5.63214 8.70947 5.55281 8.93298 5.10569C9.49534 3.96627 10.7787 3.2956 11.9827 3.51916C13.54 3.80762 14.5278 5.13454 14.3836 6.72108C14.3475 7.10329 14.362 7.24752 14.4485 7.38454C14.6864 7.74512 15.2704 7.673 15.4506 7.26194C15.5948 6.90858 15.5732 5.68262 15.4074 5.19223C14.8162 3.42541 13.2877 2.30041 11.5069 2.31483C11.2329 2.31483 10.8147 2.36531 10.5768 2.423Z" fill="#7F7F7F"/>
<path d="M11.1463 4.79549C10.7859 5.14885 11.0382 5.76904 11.5429 5.76904C11.8385 5.76904 12.1197 5.48779 12.1197 5.19212C12.1197 4.89645 11.8385 4.6152 11.5429 4.6152C11.4059 4.6152 11.2545 4.6801 11.1463 4.79549Z" fill="#7F7F7F"/>
<path d="M14.0302 20.9493C13.9149 21.0575 13.85 21.2089 13.85 21.3459C13.85 21.4829 13.9149 21.6344 14.0302 21.7426C14.196 21.9156 14.2537 21.9229 15.0035 21.9229C15.7534 21.9229 15.811 21.9156 15.9769 21.7426C16.0922 21.6344 16.1571 21.4829 16.1571 21.3459C16.1571 21.2089 16.0922 21.0575 15.9769 20.9493C15.811 20.7762 15.7534 20.769 15.0035 20.769C14.2537 20.769 14.196 20.7762 14.0302 20.9493Z" fill="#7F7F7F"/>
<path d="M19.7982 9.98787C19.6828 10.096 19.6179 10.2475 19.6179 10.3845C19.6179 10.5215 19.6828 10.673 19.7982 10.7811L19.9712 10.9614H22.2134H24.4557L24.6287 10.7811C24.7441 10.673 24.809 10.5215 24.809 10.3845C24.809 10.2475 24.7441 10.096 24.6287 9.98787L24.4557 9.80758H22.2134H19.9712L19.7982 9.98787Z" fill="#7F7F7F"/>
<path d="M19.7982 12.2955C19.6828 12.4037 19.6179 12.5551 19.6179 12.6921C19.6179 12.8291 19.6828 12.9806 19.7982 13.0888L19.9712 13.269H22.2134H24.4557L24.6287 13.0888C24.7441 12.9806 24.809 12.8291 24.809 12.6921C24.809 12.5551 24.7441 12.4037 24.6287 12.2955L24.4557 12.1152H22.2134H19.9712L19.7982 12.2955Z" fill="#7F7F7F"/>
<path d="M0.187447 8.83428C0.0288316 8.98573 0.00720215 9.07227 0.00720215 9.51938C0.00720215 9.9665 0.0288316 10.053 0.187447 10.2045C0.295594 10.3199 0.447 10.3848 0.583986 10.3848C0.720973 10.3848 0.872379 10.3199 0.980526 10.2045C1.13914 10.053 1.16077 9.9665 1.16077 9.51938C1.16077 9.07227 1.13914 8.98573 0.980526 8.83428C0.872379 8.7189 0.720973 8.654 0.583986 8.654C0.447 8.654 0.295594 8.7189 0.187447 8.83428Z" fill="#7F7F7F"/>
</svg>
