<svg width="30" height="30" viewBox="0 0 30 30" fill="none" xmlns="http://www.w3.org/2000/svg">
<path d="M13.6969 0.038702C10.8518 0.407829 8.54968 1.48836 6.6023 3.36755C5.08927 4.83063 4.083 6.62257 3.62692 8.66283C3.50385 9.22659 3.46765 9.70981 3.41698 11.7165C3.35182 14.4279 3.32287 14.6024 2.71476 15.6964C2.45414 16.1662 2.21524 16.4547 1.57818 17.0789C0.390925 18.2467 0.00723936 19.0252 0 20.3071C0 21.4883 0.405404 22.4547 1.28861 23.3138C1.87499 23.8977 2.36727 24.193 3.14188 24.4547C3.65588 24.6225 3.72827 24.6292 5.90732 24.6628L8.15152 24.703L8.27459 25.1393C8.93337 27.4883 10.9314 29.2802 13.5376 29.8842C14.2036 30.0386 15.7963 30.0386 16.4623 29.8842C17.8667 29.5621 19.0106 28.9446 20.0024 27.9715C20.3354 27.6426 20.7697 27.1326 20.9652 26.8305C21.3127 26.2936 21.805 25.1124 21.805 24.8171V24.6695H23.7958C26.0834 24.6695 26.5757 24.6091 27.4517 24.2131C27.8643 24.0252 28.1394 23.8306 28.61 23.3943C29.58 22.495 30.0071 21.542 29.9999 20.2735C29.9927 19.0319 29.5945 18.2266 28.4579 17.1125C27.6471 16.3272 27.3141 15.8641 26.9956 15.1393C26.6481 14.3138 26.5829 13.8239 26.5829 11.8709C26.5829 9.95813 26.4961 9.09907 26.221 8.09236C25.4174 5.17962 23.1732 2.5689 20.2919 1.19306C18.6196 0.394405 17.1645 0.045414 15.2895 0.00514603C14.6742 -0.00827789 13.9575 0.00514603 13.6969 0.038702ZM16.9546 2.31386C18.7355 2.6897 20.1689 3.42124 21.4864 4.636C22.5578 5.62257 23.3397 6.77693 23.7885 8.02525C24.165 9.09236 24.2012 9.39437 24.2663 11.9179C24.317 13.985 24.3387 14.3742 24.469 14.844C24.8889 16.3541 25.5332 17.4212 26.735 18.5621C27.4734 19.2668 27.6906 19.6695 27.6906 20.3004C27.6833 21.146 27.1838 21.9312 26.4092 22.3071L26.04 22.4883H15H3.95993L3.59072 22.3071C2.46862 21.7567 1.98358 20.4346 2.52654 19.3876C2.59169 19.2534 2.91022 18.891 3.24323 18.5688C4.0468 17.7836 4.17711 17.636 4.58251 17.0118C4.98068 16.3876 5.30645 15.6494 5.52363 14.8507C5.66118 14.3675 5.6829 14.0051 5.73357 11.8843C5.78425 9.8239 5.81321 9.38766 5.93628 8.89773C6.6023 6.29371 8.3687 4.21318 10.9097 3.03869C11.8726 2.59574 12.8281 2.32728 14.0226 2.1595C14.5222 2.09239 16.3537 2.18635 16.9546 2.31386ZM19.3291 25.052C18.7065 26.6091 17.027 27.7701 15.2461 27.8708C13.3421 27.9849 11.373 26.7903 10.6925 25.1057L10.5116 24.6695H15H19.4884L19.3291 25.052Z" fill="#7F7F7F"/>
</svg>
