<svg width="24" height="24" viewBox="0 0 24 24" fill="none" xmlns="http://www.w3.org/2000/svg">
<path d="M11.1818 0.0695496C10.7502 0.172588 10.2295 0.409575 9.86827 0.672319C9.52582 0.919609 1.14278 8.61136 0.706505 9.07502C0.387509 9.41505 0.110733 10.023 0.0309836 10.5433C-0.180117 11.9343 0.711197 13.3305 1.98249 13.5932L2.29211 13.655V17.6323C2.29211 22.0114 2.29211 21.965 2.58765 22.5781C2.78467 22.9954 3.23033 23.4848 3.59624 23.6857C4.16386 24 4.14979 24 7.22717 24H10.0278L10.0418 20.4091L10.0559 16.8131L10.206 16.4628C10.5813 15.5921 11.4304 15.0821 12.2748 15.2264C13.0723 15.3603 13.7009 15.9734 13.8979 16.8131C13.9636 17.0759 13.973 17.6168 13.973 20.5585V24H16.8018C19.8697 24 19.8604 24 20.3952 23.7063C20.7892 23.49 21.2442 22.9696 21.446 22.506C21.5351 22.2947 21.6336 21.9805 21.6618 21.8156C21.6946 21.6147 21.7134 20.1619 21.7134 17.5859V13.6653L22.0089 13.6035C22.6375 13.4747 23.3412 12.9389 23.6508 12.3516C24.2231 11.2749 24.0824 9.98175 23.299 9.09048C22.9096 8.64742 14.5641 0.97628 14.1372 0.672319C13.7572 0.399269 13.2693 0.17774 12.8002 0.0695496C12.3968 -0.0231838 11.5665 -0.0231838 11.1818 0.0695496ZM12.941 1.1669C13.1098 1.22872 13.3772 1.36267 13.5367 1.47086C13.9355 1.7336 22.6328 9.75507 22.8017 10.0075C23.2145 10.6309 23.1254 11.5788 22.6047 12.1507C22.2857 12.501 22.0699 12.5834 21.3756 12.6041L20.7751 12.6247L20.7658 17.1686L20.7517 21.7074L20.5969 22.0526C20.4139 22.4596 20.1606 22.7172 19.8041 22.8666C19.5648 22.9645 19.4382 22.9696 17.2333 22.9696H14.9159L14.8972 19.8424C14.8831 16.4319 14.8925 16.5968 14.6063 15.9476C14.0997 14.8194 12.9644 14.0929 11.8245 14.1805C11.3507 14.2114 10.7643 14.4227 10.3937 14.6957C10.0231 14.9688 9.60557 15.484 9.40854 15.9219C9.08954 16.6122 9.09424 16.5813 9.09424 19.9403V22.9748L6.69238 22.9593L4.28583 22.9439L4.08411 22.8254C3.7745 22.6451 3.52587 22.372 3.38514 22.0526L3.25379 21.7589L3.23971 17.1892L3.23033 12.6247L2.62987 12.6041C1.93558 12.5834 1.71979 12.501 1.40079 12.1507C0.89415 11.5943 0.795637 10.7133 1.16624 10.0745C1.26006 9.90963 2.49851 8.74015 5.60873 5.88086C7.97775 3.70162 10.0325 1.81603 10.1732 1.69239C10.4687 1.43995 10.905 1.20811 11.2897 1.09992C11.6837 0.991735 12.5469 1.0278 12.941 1.1669Z" fill="#D7A53F"/>
</svg>
