<svg width="24" height="24" viewBox="0 0 24 24" fill="none" xmlns="http://www.w3.org/2000/svg">
<path d="M8.55343 0.0333118C5.15753 0.507393 2.43436 2.45221 0.986661 5.44755C0.00179718 7.47317 -0.245764 9.6227 0.243977 11.8315C0.884407 14.6922 2.84337 17.1541 5.49658 18.4309C8.62877 19.934 12.2076 19.6862 15.0707 17.7629C16.1686 17.0356 17.0459 16.1467 17.7885 15.0369C20.3449 11.1958 19.839 6.12635 16.5776 2.84009C15.1407 1.3963 13.4078 0.491232 11.325 0.103346C10.8138 0.0117626 9.05393 -0.0367241 8.55343 0.0333118ZM10.5339 1.32626C12.5413 1.53637 14.1881 2.32291 15.6035 3.74516C16.3355 4.47783 16.7768 5.08121 17.1858 5.88931C17.8101 7.14455 18.0792 8.28127 18.0792 9.69274C18.0792 11.9877 17.1965 14.0888 15.5551 15.6996C14.4411 16.7986 12.9611 17.5744 11.325 17.9299C10.5339 18.1023 8.88171 18.1023 8.06907 17.9245C6.36305 17.5582 4.96379 16.804 3.76365 15.6026C1.77778 13.6147 0.943607 10.8456 1.4764 8.0119C1.67553 6.96138 2.22447 5.70614 2.88642 4.77952C4.60859 2.3714 7.60624 1.01919 10.5339 1.32626Z" fill="#7F7F7F"/>
<path d="M18.0252 16.1791C18.0198 16.3084 16.9596 17.3913 16.3138 17.93L16.1416 18.0754L16.2439 18.3179C16.3784 18.6196 17.0457 19.8479 17.1049 19.8802C17.1265 19.8963 17.7723 19.2768 18.5365 18.5118C19.8604 17.1865 19.925 17.1111 19.8281 17.0357C19.6613 16.9172 18.1544 16.1414 18.0844 16.1414C18.0521 16.1414 18.0252 16.1576 18.0252 16.1791Z" fill="#7F7F7F"/>
<path d="M19.1339 19.1529L17.5786 20.7098L17.9984 21.3185C19.3331 23.2741 19.9089 23.7913 20.9153 23.9637C21.4643 24.0553 22.0024 23.9745 22.5298 23.7105C23.8591 23.0533 24.3812 21.4478 23.7031 20.1064C23.4986 19.697 23.2187 19.4007 22.5944 18.905C22.0509 18.4848 20.7861 17.5959 20.7216 17.5959C20.7054 17.5959 19.9896 18.2963 19.1339 19.1529Z" fill="#7F7F7F"/>
</svg>
