<svg width="30" height="30" viewBox="0 0 30 30" fill="none" xmlns="http://www.w3.org/2000/svg">
<path d="M14.5745 0.0703526C14.2996 0.186939 14.0179 0.517271 13.971 0.776354C13.9509 0.892942 13.9442 4.57192 13.9509 8.96338C13.971 16.9043 13.971 16.9431 14.1118 17.118C14.3734 17.4613 14.588 17.5649 15.0104 17.5649C15.4329 17.5649 15.6475 17.4613 15.9091 17.118C16.0499 16.9431 16.0499 16.9237 16.0499 8.7885C16.0499 0.65329 16.0499 0.633858 15.9091 0.458977C15.8353 0.36182 15.6945 0.219326 15.6006 0.154554C15.3793 -0.0073719 14.8428 -0.0527115 14.5745 0.0703526Z" fill="#7F7F7F"/>
<path d="M5.05189 4.40986C4.93788 4.4552 4.58246 4.7661 4.25386 5.10291C-0.205699 9.6822 -1.27868 16.5544 1.60495 22.0793C2.73158 24.2297 4.59587 26.257 6.72841 27.6172C8.56589 28.7961 10.4838 29.5085 12.831 29.8777C13.8436 30.0397 16.1438 30.0397 17.2034 29.8842C20.3686 29.4049 23.1114 28.0965 25.3915 25.985C27.7923 23.7634 29.2676 21.043 29.8444 17.7915C30.0388 16.7034 30.0523 14.4429 29.8779 13.3223C29.3682 10.1615 27.8996 7.22091 25.7402 5.05109C25.3915 4.7078 25.197 4.56531 25.0026 4.51349C24.3252 4.33861 23.6613 4.83735 23.6613 5.51744C23.6613 5.84129 23.7955 6.06799 24.3252 6.61854C28.0069 10.453 28.9323 16.2435 26.6053 20.9005C23.9899 26.134 18.0282 28.9191 12.1537 27.6431C9.7864 27.1315 7.38561 25.8166 5.7225 24.1326C4.0728 22.4615 2.91264 20.3499 2.4298 18.1413C1.51777 13.97 2.80534 9.55914 5.8298 6.489C6.18522 6.11981 6.44005 5.80891 6.4937 5.65346C6.77536 4.83087 5.88345 4.0601 5.05189 4.40986Z" fill="#7F7F7F"/>
</svg>
