<svg width="30" height="30" viewBox="0 0 30 30" fill="none" xmlns="http://www.w3.org/2000/svg">
<path d="M14.6201 0.0743456C14.3911 0.179945 14.2092 0.355945 14.08 0.596477C13.9861 0.76661 13.9744 0.977808 13.9744 2.58527V4.38046L14.1505 4.63273C14.3677 4.93779 14.6553 5.09619 15.0017 5.09619C15.348 5.09619 15.6356 4.93779 15.8528 4.63273L16.0289 4.38046V2.58527C16.0289 0.813543 16.0289 0.778343 15.8939 0.549544C15.6356 0.0919456 15.0427 -0.12512 14.6201 0.0743456Z" fill="#7F7F7F"/>
<path d="M4.62312 4.22209C4.06545 4.49782 3.90109 5.13729 4.24743 5.69462C4.312 5.80022 4.89315 6.40448 5.533 7.03808C6.39592 7.88874 6.75401 8.20554 6.91837 8.25834C7.71672 8.52234 8.48572 7.71861 8.19221 6.93248C8.09828 6.69195 5.7502 4.34529 5.46256 4.21036C5.15731 4.06956 4.93424 4.06956 4.62312 4.22209Z" fill="#7F7F7F"/>
<path d="M24.5407 4.21022C24.2531 4.34515 21.905 6.69767 21.8111 6.93234C21.6702 7.31367 21.7817 7.75954 22.0811 8.04114C22.3746 8.31687 22.6446 8.37553 23.0732 8.2582C23.2551 8.2054 23.5369 7.96487 24.4703 7.03794C25.1101 6.40434 25.703 5.77661 25.7852 5.64168C26.2842 4.79688 25.4095 3.78782 24.5407 4.21022Z" fill="#7F7F7F"/>
<path d="M14.2972 7.50144C10.7106 7.8241 7.82829 10.734 7.48781 14.3771C7.24714 17.0347 8.56206 19.7627 10.8162 21.2646C14.0037 23.3824 18.2244 22.8192 20.6723 19.9505C21.7641 18.6715 22.3629 17.2694 22.5097 15.6443C22.8912 11.5436 19.7976 7.88864 15.618 7.50144C15.2658 7.4721 14.9312 7.44864 14.8843 7.44864C14.8373 7.4545 14.5731 7.47797 14.2972 7.50144ZM16.5455 9.75423C18.4005 10.3116 19.692 11.5964 20.2672 13.4678C20.414 13.943 20.4257 14.0603 20.4257 15.0107C20.4257 15.9611 20.414 16.0785 20.2672 16.5537C19.9679 17.5275 19.4806 18.3371 18.8114 18.9766C18.1657 19.5867 17.4613 19.9915 16.5455 20.2731C16.0701 20.4198 15.9526 20.4315 15.0017 20.4315C14.0507 20.4315 13.9333 20.4198 13.4578 20.2731C11.5852 19.6982 10.3114 18.4251 9.7361 16.5537C9.58935 16.0785 9.57761 15.9611 9.57761 15.0107C9.57761 14.0603 9.58935 13.943 9.7361 13.4678C10.3583 11.4438 11.8083 10.1121 13.8922 9.64276C14.1564 9.5841 14.5262 9.56063 15.1484 9.57823C15.8939 9.59583 16.1111 9.62516 16.5455 9.75423Z" fill="#7F7F7F"/>
<path d="M0.819219 14.0075C0.719425 14.031 0.56093 14.1014 0.467006 14.1542C-0.190456 14.5414 -0.143495 15.5856 0.543319 15.9259C0.748776 16.0256 0.913142 16.0374 2.56854 16.0374H4.36482L4.61724 15.8614C4.92249 15.6443 5.08099 15.3568 5.08099 15.0107C5.08099 14.6646 4.92249 14.3771 4.61724 14.16L4.36482 13.984L2.68594 13.9723C1.75845 13.9664 0.919012 13.984 0.819219 14.0075Z" fill="#7F7F7F"/>
<path d="M25.703 14.0077C25.251 14.1192 24.9222 14.5475 24.9222 15.0227C24.9222 15.3571 25.0807 15.6445 25.386 15.8616L25.6384 16.0376H27.4347C29.2075 16.0376 29.2427 16.0376 29.4716 15.9027C29.8297 15.6973 30 15.4099 30 15.0109C30 14.612 29.8297 14.3245 29.4716 14.1192C29.2427 13.9901 29.1957 13.9843 27.5638 13.9725C26.6422 13.9667 25.8028 13.9843 25.703 14.0077Z" fill="#7F7F7F"/>
<path d="M6.90658 21.7693C6.66003 21.8397 4.44696 23.9928 4.21803 24.38C3.85407 25.0018 4.21216 25.788 4.92245 25.9053C5.35097 25.9757 5.5036 25.8642 6.83614 24.5501C7.52295 23.8696 8.12171 23.2301 8.16867 23.1245C8.32717 22.7549 8.25086 22.3325 7.96909 22.0275C7.68145 21.7224 7.34097 21.6403 6.90658 21.7693Z" fill="#7F7F7F"/>
<path d="M22.2807 21.828C21.8287 22.0568 21.6115 22.5379 21.7524 23.0072C21.8111 23.2067 22.0459 23.4824 23.0321 24.4797C24.5231 25.9816 24.7286 26.0989 25.3332 25.7938C25.7852 25.5651 26.0024 25.084 25.8615 24.6147C25.8028 24.4152 25.568 24.1395 24.5818 23.1421C23.0908 21.6403 22.8854 21.5229 22.2807 21.828Z" fill="#7F7F7F"/>
<path d="M14.532 25.0368C14.4205 25.0955 14.2503 25.2539 14.1505 25.3888L13.9744 25.6411V27.4363C13.9744 29.208 13.9744 29.2432 14.1094 29.472C14.3148 29.8299 14.6025 30 15.0017 30C15.4008 30 15.6885 29.8299 15.8939 29.472C16.0289 29.2432 16.0289 29.208 16.0289 27.4363V25.6411L15.8528 25.3888C15.6356 25.0838 15.348 24.9254 15.0017 24.9254C14.8549 24.9254 14.6436 24.9723 14.532 25.0368Z" fill="#7F7F7F"/>
</svg>
