<svg width="24" height="24" viewBox="0 0 24 24" fill="none" xmlns="http://www.w3.org/2000/svg">
<path d="M11.1543 0.0115299C11.065 0.0209217 10.7878 0.0537949 10.5435 0.0772762C8.99295 0.246342 7.278 0.828678 5.89193 1.65522C4.12999 2.70718 2.69695 4.13954 1.64448 5.90063C0.82224 7.27194 0.277212 8.86867 0.0563821 10.5499C-0.018794 11.1276 -0.018794 12.884 0.0563821 13.4616C0.44166 16.3874 1.72905 18.8623 3.90916 20.8864C5.11198 22.0088 6.61081 22.8823 8.24119 23.4177C9.52858 23.845 10.5482 24 12 24C13.0713 24 13.5458 23.9577 14.4902 23.7652C17.7275 23.103 20.6171 21.0273 22.3555 18.1109C23.1778 16.7396 23.7228 15.1429 23.9436 13.4616C24.0188 12.884 24.0188 11.1276 23.9436 10.5499C23.7228 8.86867 23.1778 7.27194 22.3555 5.90063C21.3031 4.13954 19.87 2.70718 18.1081 1.65522C16.7502 0.842766 15.1292 0.288609 13.5035 0.0772762C13.0901 0.0209217 11.4456 -0.0213451 11.1543 0.0115299ZM12.9632 1.43919C15.7024 1.69279 18.3477 3.06879 20.0908 5.14923C22.379 7.87776 23.1543 11.4281 22.2146 14.8564C21.8528 16.176 21.2138 17.4393 20.3446 18.543C20.1848 18.7449 20.0486 18.9093 20.0345 18.9093C20.0204 18.9093 19.9452 18.7073 19.87 18.4584C19.4706 17.1247 18.5403 15.6923 17.4644 14.7484C16.7878 14.1566 15.8622 13.5884 15.0305 13.2503L14.8426 13.1751L15.007 13.053C15.3031 12.8323 16.0219 12.0762 16.1958 11.8038C16.863 10.766 17.1449 9.64355 17.0274 8.49766C16.8536 6.77883 15.8481 5.29951 14.3258 4.50585C11.159 2.86216 7.33438 4.9332 6.97259 8.49766C6.87862 9.42282 7.05717 10.3949 7.47063 11.2168C7.80423 11.879 8.35865 12.5646 8.90368 12.9779C9.03054 13.0718 9.13391 13.1657 9.13391 13.1798C9.13391 13.1939 8.97886 13.2644 8.79092 13.3395C7.52232 13.8514 6.25372 14.847 5.3657 16.0211C4.85356 16.702 4.36492 17.6601 4.12529 18.4631C4.05482 18.7073 3.97964 18.9093 3.96554 18.9093C3.92796 18.9093 3.39233 18.2142 3.12451 17.815C2.8285 17.3736 2.30697 16.3592 2.09554 15.8191C1.72905 14.8893 1.49883 13.8138 1.41895 12.6492C1.17463 9.28194 2.69225 5.86306 5.361 3.73566C7.51762 2.01683 10.2522 1.19029 12.9632 1.43919ZM12.9867 5.47797C14.1942 5.8208 15.1386 6.76474 15.5051 7.99047C15.6695 8.54932 15.6789 9.34768 15.5333 9.89715C15.0963 11.5267 13.6774 12.6163 12 12.6163C10.3226 12.6163 8.90368 11.5267 8.46672 9.89715C8.32106 9.34768 8.33046 8.54932 8.49491 7.99047C8.90838 6.60037 9.97964 5.65643 11.4832 5.36526C11.7557 5.3136 12.6437 5.37935 12.9867 5.47797ZM12.9632 14.1707C14.4197 14.3586 15.7071 15.0067 16.8207 16.115C17.657 16.9509 18.1832 17.7962 18.5215 18.8623C18.6437 19.2427 18.8363 20.135 18.7987 20.1538C18.794 20.1585 18.6531 20.2665 18.4839 20.398C17.0368 21.5251 15.2937 22.2483 13.3391 22.5301C12.794 22.6099 11.206 22.6099 10.6609 22.5301C8.70634 22.2483 6.96319 21.5251 5.51605 20.398C5.34691 20.2665 5.20595 20.1585 5.20125 20.1538C5.19186 20.1491 5.22005 19.9706 5.25764 19.7593C5.6852 17.3313 7.42365 15.2978 9.77291 14.4807C10.8113 14.1191 11.798 14.0205 12.9632 14.1707Z" fill="#493421"/>
</svg>
