<svg width="30" height="30" viewBox="0 0 30 30" fill="none" xmlns="http://www.w3.org/2000/svg">
<path d="M13.816 0.0956497C11.4517 0.75375 9.67543 2.98524 9.17226 5.92022C9.06314 6.54806 9.05101 7.94747 9.14801 8.60557C9.25107 9.30906 9.439 10.0125 9.69968 10.6555C9.93612 11.2531 10.5181 12.2667 10.8394 12.6449L11.0213 12.8643L10.6151 13.1064C10.1301 13.3938 9.46931 13.8931 9.09345 14.2562L8.82064 14.5133L8.64483 14.0746C8.38415 13.4468 7.76579 12.7055 7.20805 12.3651C6.3957 11.8658 5.62578 11.7524 4.81948 12.0095C3.49789 12.4331 2.52791 13.704 2.25511 15.3757C2.0793 16.4574 2.28542 17.6601 2.80678 18.6132L3.0614 19.0747L2.53397 19.5134C1.89136 20.0505 1.2245 20.9279 0.818326 21.76C0.0605308 23.3258 -0.230462 25.5649 0.199965 26.4878C0.509145 27.1459 0.951698 27.5695 1.74587 27.9704C3.00684 28.6133 5.05592 28.8705 7.08681 28.6436L7.8446 28.5604L8.66302 28.9008C10.2938 29.5816 12.1064 29.9295 14.4223 29.9901C17.1503 30.0657 19.448 29.7102 21.394 28.9008L22.2124 28.568L23.1096 28.6587C26.4075 28.9991 29.1902 28.0385 29.857 26.3365C30.0147 25.9356 30.0147 25.8902 29.9843 24.9976C29.8934 22.4786 28.9113 20.5497 27.0017 19.1579C26.8986 19.0822 26.9107 19.0444 27.0987 18.7343C27.5109 18.061 27.7595 17.0852 27.7595 16.1321C27.7595 14.173 26.8016 12.6223 25.2436 12.0398C24.6798 11.828 23.728 11.8507 23.1763 12.1003C22.37 12.4558 21.6607 13.2047 21.303 14.0897L21.1394 14.4982L20.8302 14.2183C20.3634 13.7947 19.9633 13.4922 19.454 13.1745C19.2055 13.0232 18.9872 12.887 18.9751 12.8719C18.963 12.8568 19.1327 12.6071 19.3449 12.3197C21.1757 9.89908 21.4182 6.07907 19.9087 3.28025C19.1145 1.79007 17.8536 0.64785 16.5138 0.201551C15.8772 -0.010252 14.4041 -0.0707664 13.816 0.0956497ZM16.0288 1.38159C17.9991 1.88841 19.5935 3.96105 19.9451 6.45729C20.0603 7.29694 19.9875 8.5148 19.7632 9.36201C18.6114 13.7947 14.107 15.1336 11.4881 11.8204C9.83912 9.73266 9.5845 6.46486 10.8758 4.02913C11.185 3.44667 11.8033 2.6751 12.2701 2.28932C12.749 1.89597 13.4402 1.53288 13.9676 1.38916C14.5314 1.24544 15.471 1.23787 16.0288 1.38159ZM6.45026 13.2728C7.15955 13.5829 7.81429 14.3999 8.02041 15.2395C8.05678 15.3833 7.98404 15.527 7.60211 16.0414C6.98981 16.8734 6.48057 17.7736 6.12895 18.6511L5.84402 19.3621L5.47422 19.3243C3.85557 19.1427 2.79465 17.2138 3.26752 15.3152C3.67976 13.6586 5.15291 12.7055 6.45026 13.2728ZM25.1829 13.2728C25.8013 13.5375 26.3772 14.1956 26.6561 14.9445C26.8622 15.5043 26.9107 16.4725 26.7652 17.0928C26.4864 18.3031 25.6013 19.2033 24.5828 19.3243L24.213 19.3621L23.9826 18.7721C23.6552 17.9324 23.0672 16.8583 22.4791 16.0262L21.982 15.3152L22.176 14.8386C22.7519 13.4619 24.0493 12.7811 25.1829 13.2728ZM12.3671 14.0897C14.0646 15.0807 15.9015 15.0958 17.5747 14.12L18.09 13.8174L18.3628 13.946C19.2964 14.3848 20.424 15.2849 21.2242 16.2305C22.8793 18.1972 23.8492 20.6859 24.0614 23.5225C24.1463 24.6345 24.0917 25.1262 23.8189 25.633C23.5764 26.0944 23.5279 26.1549 23.1521 26.5407C22.2124 27.4863 20.4482 28.2049 18.0294 28.6209C17.0594 28.7873 14.004 28.8554 12.9006 28.7344C9.30563 28.341 6.80794 27.1761 6.08652 25.5422C5.90465 25.1413 5.90465 25.1186 5.91071 24.0369C5.91677 22.2895 6.20776 20.9052 6.911 19.1957C7.86885 16.8886 9.49356 15.0277 11.4517 14.0065C11.6336 13.9082 11.8154 13.8326 11.8518 13.825C11.8943 13.825 12.1246 13.946 12.3671 14.0897ZM5.01348 20.4287C5.23779 20.4741 5.42572 20.5195 5.43784 20.527C5.44391 20.5346 5.38328 20.8674 5.29841 21.2759C5.21354 21.6768 5.10441 22.403 5.05591 22.8795C4.83767 24.9749 5.0256 25.928 5.88646 27.0021L6.28657 27.5089L6.01983 27.5619C5.72277 27.6148 4.73461 27.5543 3.96469 27.4333C2.67947 27.2291 1.40031 26.6315 1.11538 26.0868C0.903199 25.6859 0.878949 25.3909 0.988072 24.5891C1.26088 22.6299 2.16417 21.0868 3.54639 20.2169L3.9465 19.9673L4.27387 20.1564C4.45574 20.2623 4.78917 20.3833 5.01348 20.4287ZM26.6197 20.2623C27.329 20.701 28.1171 21.6692 28.5354 22.5997C28.9416 23.515 29.2387 25.1262 29.0992 25.7011C28.9234 26.4424 27.7837 27.1156 26.2317 27.3955C25.4376 27.5392 24.1463 27.6224 23.922 27.5392L23.7462 27.4711L24.0493 27.1534C24.704 26.4651 25.092 25.4212 25.092 24.3319C25.092 23.5301 24.9405 22.1836 24.7586 21.3289C24.6737 20.9431 24.607 20.5951 24.607 20.5649C24.607 20.527 24.7768 20.4589 24.9829 20.406C25.189 20.3606 25.5224 20.2396 25.7286 20.1412C26.1166 19.9597 26.1469 19.9673 26.6197 20.2623Z" fill="#7F7F7F"/>
</svg>
