<svg width="30" height="30" viewBox="0 0 30 30" fill="none" xmlns="http://www.w3.org/2000/svg">
<path d="M13.9772 0.086937C13.4378 0.215734 12.7869 0.511967 12.3353 0.840399C11.9073 1.14951 1.42847 10.7642 0.883132 11.3438C0.484386 11.7688 0.138416 12.5287 0.0387295 13.1791C-0.225146 14.9179 0.888996 16.6631 2.47811 16.9915L2.86513 17.0688V22.0404C2.86513 27.5142 2.86513 27.4563 3.23456 28.2226C3.48084 28.7442 4.03791 29.356 4.4953 29.6072C5.20483 30 5.18724 30 9.03396 30H12.5347L12.5523 25.5114L12.5699 21.0164L12.7575 20.5785C13.2267 19.4902 14.288 18.8526 15.3435 19.033C16.3404 19.2004 17.1261 19.9667 17.3724 21.0164C17.4545 21.3449 17.4663 22.021 17.4663 25.6982V30H21.0022C24.8372 30 24.8255 30 25.4939 29.6329C25.9865 29.3625 26.5553 28.712 26.8075 28.1324C26.9189 27.8684 27.042 27.4756 27.0772 27.2695C27.1182 27.0184 27.1417 25.2023 27.1417 21.9824V17.0817L27.5111 17.0044C28.2969 16.8434 29.1765 16.1737 29.5635 15.4395C30.2789 14.0936 30.103 12.4772 29.1237 11.3631C28.637 10.8093 18.2051 1.22035 17.6715 0.840399C17.1965 0.499086 16.5867 0.222174 16.0003 0.086937C15.496 -0.0289803 14.4581 -0.0289803 13.9772 0.086937ZM16.1762 1.45862C16.3873 1.5359 16.7215 1.70334 16.9209 1.83857C17.4193 2.16701 28.291 12.1938 28.5021 12.5094C29.0181 13.2886 28.9067 14.4735 28.2558 15.1884C27.8571 15.6263 27.5874 15.7293 26.7195 15.7551L25.9689 15.7808L25.9572 21.4608L25.9396 27.1343L25.7461 27.5657C25.5174 28.0745 25.2007 28.3965 24.7551 28.5832C24.456 28.7056 24.2977 28.712 21.5417 28.712H18.6449L18.6214 24.803C18.6039 20.5399 18.6156 20.7459 18.2579 19.9345C17.6246 18.5242 16.2055 17.6162 14.7806 17.7257C14.1883 17.7643 13.4553 18.0283 12.9921 18.3696C12.5288 18.711 12.007 19.3549 11.7607 19.9023C11.3619 20.7653 11.3678 20.7266 11.3678 24.9254V28.7185L8.36547 28.6992L5.35729 28.6798L5.10514 28.5317C4.71813 28.3063 4.40734 27.965 4.23142 27.5657L4.06723 27.1987L4.04964 21.4865L4.03791 15.7808L3.28733 15.7551C2.41947 15.7293 2.14974 15.6263 1.75099 15.1884C1.11769 14.4929 0.994546 13.3916 1.45779 12.5931C1.57507 12.387 3.12314 10.9252 7.01091 7.35108C9.97218 4.62703 12.5406 2.27004 12.7165 2.11549C13.0859 1.79993 13.6313 1.51014 14.1121 1.3749C14.6047 1.23967 15.6836 1.28475 16.1762 1.45862Z" fill="#F4EBD7"/>
</svg>
