<svg width="30" height="30" viewBox="0 0 30 30" fill="none" xmlns="http://www.w3.org/2000/svg">
<path d="M2.54734 0.0917034C2.08472 0.320961 1.99688 0.64192 1.99102 2.14847V3.34061L0.99551 5.56769L0 7.79476V8.72489C0 9.90393 0.0644154 10.3821 0.281085 10.9061C0.585594 11.6266 1.09506 12.131 1.78606 12.393L2.07886 12.5044L2.09643 19.3166L2.10814 26.1354H1.59282C1.15948 26.1354 1.03065 26.1616 0.778841 26.2991C0.163966 26.6463 0 27.0852 0 28.4083C0 29.4629 0.0527035 29.6921 0.345501 29.8886C0.503611 29.9934 1.45227 30 14.9912 30C28.5302 30 29.4788 29.9934 29.6369 29.8886C29.9297 29.6921 29.9824 29.4629 29.9824 28.4083C29.9824 27.0852 29.8185 26.6463 29.2036 26.2991C28.9518 26.1616 28.823 26.1354 28.3896 26.1354H27.8743L27.886 19.3166L27.9036 12.4913L28.1378 12.4127C28.9225 12.1507 29.5022 11.5349 29.8068 10.6441C29.9239 10.3035 29.9414 10.0939 29.9707 9.0393L30 7.82751L29.0103 5.63319L28.0207 3.43886L27.9914 2.09607C27.9621 0.622271 27.927 0.471615 27.5639 0.170305L27.4 0.0327511L17.1462 0.0130997L6.88659 0L6.7519 0.144104C6.51767 0.393013 6.6055 0.772924 6.93344 0.91703C7.03884 0.962881 10.3182 0.982533 17.1052 0.982533H27.1189L27.1013 1.94541L27.0837 2.91485H14.9912H2.89869L2.88112 1.94541L2.86356 0.982533H3.91177C4.52664 0.982533 5.03611 0.949781 5.14737 0.91048C5.4636 0.786026 5.55143 0.393013 5.31134 0.144104C5.18251 0.00654984 5.12981 0 3.94691 0C3.06266 0.00654984 2.67617 0.0262012 2.54734 0.0917034ZM5.3699 4.00873C5.35819 4.05458 5.11224 4.82096 4.8253 5.71179L4.30997 7.33624H2.74058H1.17119L1.93246 5.63319L2.69373 3.93013H4.04646C5.10638 3.93013 5.39332 3.94978 5.3699 4.00873ZM9.05914 4.00873C9.04743 4.05458 8.89518 4.82096 8.72536 5.71179L8.40914 7.33624H6.83974C5.97892 7.33624 5.27035 7.31004 5.27035 7.28384C5.27035 7.25764 5.51044 6.49782 5.79738 5.60044C6.09018 4.70306 6.32442 3.95633 6.32442 3.94978C6.32442 3.93668 6.94515 3.93013 7.70642 3.93013C8.78977 3.93013 9.08257 3.94978 9.05914 4.00873ZM12.7074 4.00873C12.7074 4.05458 12.6664 4.82096 12.6078 5.71179L12.5083 7.33624H10.9096H9.31095L9.34023 7.18559C9.39879 6.90393 9.9551 3.98253 9.9551 3.95633C9.9551 3.94323 10.5758 3.93013 11.3313 3.93013C12.3912 3.93013 12.7074 3.94978 12.7074 4.00873ZM16.4493 5.05677C16.4845 5.67904 16.5372 6.44541 16.5548 6.75982L16.5899 7.33624H14.9912H13.3925L13.4277 6.75982C13.4452 6.44541 13.498 5.67904 13.5331 5.05677L13.6034 3.93013H14.9912H16.3791L16.4493 5.05677ZM20.0273 3.95633C20.0273 3.98253 20.5836 6.90393 20.6422 7.18559L20.6715 7.33624H19.0728H17.4741L17.3746 5.71179C17.316 4.82096 17.275 4.05458 17.275 4.00873C17.275 3.94978 17.5913 3.93013 18.6512 3.93013C19.4066 3.93013 20.0273 3.94323 20.0273 3.95633ZM23.658 3.94978C23.658 3.95633 23.8981 4.70306 24.185 5.60044C24.4778 6.49782 24.7121 7.25764 24.7121 7.28384C24.7121 7.31004 24.0035 7.33624 23.1427 7.33624H21.5733L21.2571 5.71179C21.0873 4.82096 20.935 4.05458 20.9233 4.00873C20.8999 3.94978 21.1927 3.93013 22.276 3.93013C23.0373 3.93013 23.658 3.93668 23.658 3.94978ZM28.05 5.63319L28.8112 7.33624H27.2419H25.6725L25.1571 5.71179C24.8702 4.82096 24.6242 4.05458 24.6125 4.00873C24.5891 3.94978 24.8761 3.93013 25.936 3.93013H27.2887L28.05 5.63319ZM4.15772 9.22271C4.15772 10.107 4.15186 10.1397 3.97619 10.5393C3.65997 11.2402 3.10365 11.5808 2.37166 11.5153C1.7685 11.4563 1.30002 11.083 1.04821 10.4476C0.936951 10.179 0.913527 9.96943 0.890103 9.21616L0.860824 8.31878H2.5122H4.15772V9.22271ZM8.30373 9.28166C8.28616 10.1266 8.26859 10.2838 8.15733 10.5196C7.50146 11.9083 5.77396 11.8624 5.20593 10.4476C5.09467 10.1725 5.06539 9.97598 5.04782 9.21616L5.0244 8.31878H6.67578H8.32715L8.30373 9.28166ZM12.4732 9.17031C12.4732 10.1659 12.3736 10.559 12.0223 10.9651C11.3781 11.7052 10.2889 11.7183 9.67988 10.9978C9.29924 10.5393 9.22897 10.2838 9.20554 9.24891L9.18212 8.31878H10.8276H12.4732V9.17031ZM16.6309 9.12445C16.6309 10.1201 16.5489 10.4803 16.2093 10.9061C15.5475 11.7445 14.4349 11.7445 13.7732 10.9061C13.4335 10.4803 13.3516 10.1201 13.3516 9.12445V8.31878H14.9912H16.6309V9.12445ZM20.7769 9.24891C20.7593 10.0742 20.7418 10.2183 20.6246 10.4803C20.0742 11.6594 18.7683 11.9017 17.9602 10.9651C17.6088 10.559 17.5093 10.1659 17.5093 9.17031V8.31878H19.1548H20.8003L20.7769 9.24891ZM24.9346 9.21616C24.917 9.97598 24.8878 10.1725 24.7765 10.4476C24.2085 11.8624 22.481 11.9083 21.8251 10.5196C21.7138 10.2838 21.6963 10.1266 21.6787 9.28166L21.6553 8.31878H23.3067H24.958L24.9346 9.21616ZM29.0923 9.21616C29.0689 9.96943 29.0455 10.179 28.9342 10.4476C28.6824 11.083 28.2139 11.4563 27.6108 11.5153C26.8788 11.5808 26.3225 11.2402 26.0062 10.5393C25.8306 10.1397 25.8247 10.107 25.8247 9.22271V8.31878H27.4702H29.1216L29.0923 9.21616ZM5.44603 12.1703C5.82666 12.4192 6.301 12.5306 6.85145 12.4978C7.28479 12.4782 7.42534 12.4389 7.76498 12.2489C8.00508 12.1179 8.29202 11.8886 8.4677 11.6921L8.76049 11.3515L9.14698 11.7576C9.69159 12.3341 10.0195 12.4716 10.8628 12.4782C11.4777 12.4782 11.5304 12.4651 11.911 12.2555C12.1394 12.131 12.438 11.8952 12.6196 11.6856L12.9358 11.3319L13.0939 11.5611C13.3047 11.869 13.8669 12.2817 14.2534 12.4061C14.6574 12.5371 15.325 12.5371 15.7291 12.4061C16.1156 12.2817 16.6777 11.869 16.8885 11.5611L17.0467 11.3319L17.3629 11.6856C17.5444 11.8952 17.8431 12.131 18.0714 12.2555C18.4521 12.4651 18.5048 12.4782 19.1197 12.4782C19.9629 12.4716 20.2908 12.3341 20.8354 11.7576L21.2219 11.3515L21.5147 11.6921C21.6904 11.8886 21.9774 12.1179 22.2175 12.2489C22.5571 12.4389 22.6976 12.4782 23.131 12.4978C23.9567 12.5437 24.5306 12.3013 25.0869 11.6659L25.3679 11.345L25.6842 11.6987C26.0121 12.0655 26.3225 12.2751 26.7265 12.4061L26.9666 12.4847L26.9842 19.31L26.9959 26.1354H18.739H10.4821V20.5939C10.4821 14.4629 10.4997 14.7707 10.1074 14.4563L9.92583 14.3122H7.11497C4.01718 14.3122 4.14601 14.2926 3.88249 14.7249C3.78294 14.8952 3.77708 15.2096 3.75952 20.5153L3.7478 26.1354H3.36717H2.98653L2.99824 19.31L3.01581 12.4847L3.2559 12.4061C3.65997 12.2751 3.97033 12.0655 4.29241 11.6987L4.59692 11.3515L4.91899 11.6921C5.09467 11.8755 5.33476 12.0917 5.44603 12.1703ZM9.60375 20.6987V26.1354H7.11497H4.6262V20.6987V15.262H7.11497H9.60375V20.6987ZM28.9342 27.3079C29.104 27.4978 29.104 27.5109 29.104 28.2576V29.0175H14.9912H0.878392V28.2576C0.878392 27.5109 0.878392 27.4978 1.04821 27.3079L1.21804 27.1179H14.9912H28.7644L28.9342 27.3079Z" fill="#7F7F7F"/>
<path d="M11.8582 14.4104C11.7236 14.4825 11.5654 14.6397 11.5069 14.751C11.3956 14.9607 11.3898 15.1048 11.3898 19.1266C11.3898 23.0043 11.3956 23.2991 11.4952 23.5021C11.5537 23.62 11.6826 23.7772 11.788 23.8428C11.9695 23.9672 12.1335 23.9738 18.5984 23.9738H25.2215L25.4206 23.8231C25.8422 23.5152 25.8247 23.6855 25.8247 19.1593C25.8247 15.2751 25.8188 15.0851 25.7076 14.8165C25.6197 14.5938 25.5377 14.5087 25.3328 14.4039C25.081 14.2794 24.9521 14.2794 22.2584 14.2925C19.5939 14.3122 19.4475 14.3187 19.3304 14.4366C19.1723 14.6004 19.1665 14.9541 19.3246 15.131C19.4358 15.2554 19.5178 15.262 22.194 15.262H24.9463V19.1266V22.9912H18.6219H12.2974V19.1266V15.262H15.0087H17.7259L17.8489 15.1113C18.007 14.9214 18.0128 14.6724 17.8664 14.4694L17.7552 14.3122L14.9209 14.2925C12.1862 14.2794 12.0866 14.2794 11.8582 14.4104Z" fill="#7F7F7F"/>
<path d="M8.22763 19.6638C7.99925 19.8013 7.96411 19.9192 7.96411 20.5219C7.96411 21.1769 8.0051 21.3013 8.25105 21.4127C8.3916 21.4782 8.45015 21.4782 8.59655 21.393C8.81908 21.262 8.8425 21.19 8.8425 20.535C8.8425 19.8865 8.81908 19.8079 8.60241 19.6834C8.40916 19.5655 8.37988 19.5655 8.22763 19.6638Z" fill="#7F7F7F"/>
</svg>
