<svg width="30" height="30" viewBox="0 0 30 30" fill="none" xmlns="http://www.w3.org/2000/svg">
<path d="M3.38123 0.117231C2.08509 0.462656 0.972104 1.38614 0.41561 2.5775C0.0140885 3.43049 0 3.57853 0 6.7367C0 10.0077 0.0211327 10.1487 0.514229 11.1003C1.06368 12.1648 2.03578 12.9685 3.24035 13.3421C3.75458 13.5042 3.82502 13.5042 6.69202 13.5042C9.9535 13.5042 10.0028 13.4972 10.989 13.0319C11.8343 12.6301 12.6162 11.8476 13.0177 11.0016C13.4827 10.0147 13.4897 9.96537 13.4897 6.70145C13.4897 3.83231 13.4897 3.76182 13.3277 3.2472C12.8346 1.66107 11.5948 0.476755 10.0592 0.110182C9.41814 -0.0378571 3.95181 -0.0378571 3.38123 0.117231ZM9.79148 2.39422C10.3409 2.6057 10.7354 2.96523 11.0031 3.51509L11.2355 3.9874V6.7367V9.486L11.0383 9.91602C10.7143 10.621 10.1578 11.058 9.39701 11.2131C9.1575 11.2625 8.14313 11.2836 6.50183 11.2695L3.97999 11.2484L3.50803 11.0157C2.95858 10.7479 2.59932 10.3531 2.38799 9.80323C2.2612 9.47895 2.25415 9.24632 2.25415 6.7508C2.25415 3.57148 2.24711 3.60673 2.92336 2.92998C3.59256 2.26028 3.52916 2.27437 6.70611 2.26733C9.24203 2.26028 9.4604 2.26733 9.79148 2.39422Z" fill="#7F7F7F"/>
<path d="M19.914 0.117235C19.2237 0.286423 18.4065 0.751689 17.85 1.3086C17.2865 1.86551 16.9272 2.46472 16.6807 3.24721C16.5187 3.76182 16.5187 3.83232 16.5187 6.70146C16.5187 9.96537 16.5257 10.0147 16.9906 11.0016C17.371 11.8053 18.1741 12.616 18.9489 13.0037C19.9281 13.4831 19.9704 13.4901 22.9078 13.5183C24.6477 13.5395 25.7396 13.5254 26.0777 13.476C27.6274 13.2363 28.8179 12.4045 29.5153 11.0651C30.0013 10.1275 30.0154 9.97947 29.9943 6.53227L29.9732 3.49394L29.79 3.02163C29.2617 1.66812 28.3459 0.751689 26.9934 0.222978L26.5215 0.039691L23.422 0.0255919C20.9284 0.0185423 20.2451 0.0326414 19.914 0.117235ZM26.3102 2.38012C26.5567 2.46472 26.7962 2.6339 27.085 2.92998C27.7542 3.59263 27.7542 3.59263 27.7542 6.779C27.7542 9.29567 27.7472 9.46486 27.6063 9.83143C27.4231 10.3249 26.9582 10.8113 26.4299 11.058L26.0284 11.2484H23.2811H20.5339L20.1465 11.0651C19.4139 10.7197 19.0264 10.2685 18.8362 9.52125C18.7447 9.16878 18.7306 8.66122 18.7517 6.53227L18.7728 3.97331L19.0194 3.48689C19.1955 3.13442 19.3645 2.92998 19.6181 2.73965C20.238 2.27438 20.238 2.27438 23.2459 2.26733C25.655 2.26028 26.0002 2.27438 26.3102 2.38012Z" fill="#7F7F7F"/>
<path d="M3.83204 16.5707C2.26822 16.8104 0.915725 17.8819 0.302876 19.3553C0.014063 20.0391 -0.00706968 20.4127 0.014063 23.5497L0.0351957 26.5457L0.218346 27.0181C0.746663 28.3716 1.66241 29.288 3.01491 29.8167L3.48687 30H6.72722C9.94643 30 9.96756 30 10.4254 29.8379C12.0879 29.2387 13.1868 27.8852 13.4615 26.1016C13.5108 25.7633 13.5249 24.6706 13.5038 22.9294C13.4756 19.9897 13.4685 19.9474 12.9895 18.9675C12.6303 18.2344 11.792 17.3955 11.0594 17.036C10.0732 16.5496 10.0591 16.5496 6.97376 16.5284C5.44517 16.5214 4.02927 16.5355 3.83204 16.5707ZM9.53082 18.8618C10.4254 19.0944 11.0101 19.7148 11.2003 20.6383C11.2567 20.878 11.2707 21.879 11.2567 23.5286L11.2355 26.0523L11.0453 26.4541C10.7988 26.9828 10.3127 27.4481 9.81963 27.6314C9.45333 27.7724 9.28427 27.7794 6.76948 27.7794C3.58549 27.7794 3.58549 27.7794 2.92333 27.1097C2.24708 26.433 2.25413 26.4682 2.25413 23.2889C2.25413 20.8145 2.26822 20.5607 2.38797 20.2365C2.64861 19.5456 3.2051 19.0521 3.9377 18.8548C4.44488 18.7138 9.0025 18.7208 9.53082 18.8618Z" fill="#7F7F7F"/>
<path d="M22.936 17.6986C22.6472 17.7903 22.2739 18.178 22.1893 18.4741C22.1541 18.608 22.1189 19.4892 22.1189 20.4268V22.1398H20.4142C19.4703 22.1398 18.5897 22.175 18.4418 22.2103C18.0966 22.309 17.7092 22.7461 17.6458 23.1197C17.5824 23.4933 17.8219 24.0079 18.1671 24.2335C18.3995 24.3886 18.4559 24.3956 20.2592 24.3956H22.1189V26.1792C22.1189 27.8851 22.1259 27.9768 22.2809 28.2729C22.3654 28.4491 22.5416 28.6606 22.6754 28.7452C23.1333 29.0483 23.8588 28.9073 24.1829 28.4561C24.3308 28.2447 24.3378 28.1601 24.3731 26.3342L24.4083 24.4309L26.3102 24.3956C28.1347 24.3604 28.2192 24.3533 28.4305 24.2053C29.0786 23.74 29.0222 22.732 28.3178 22.3231C28.0924 22.1821 27.9374 22.175 26.2257 22.1539L24.3731 22.1328V20.2787C24.3731 18.4741 24.366 18.4177 24.211 18.1921C23.9363 17.7762 23.3798 17.5647 22.936 17.6986Z" fill="#7F7F7F"/>
</svg>
