<svg width="30" height="30" viewBox="0 0 30 30" fill="none" xmlns="http://www.w3.org/2000/svg">
<path d="M13.1507 0.0363464C12.8571 0.112635 12.4932 0.323895 12.2642 0.552759C11.8826 0.928331 11.7886 1.23935 11.6125 2.63015C11.5303 3.32261 11.4305 3.91531 11.4012 3.95639C11.3718 3.99747 11.2544 4.05615 11.137 4.09136C11.0196 4.13243 10.6497 4.27914 10.3151 4.42585L9.71037 4.6958L9.49315 4.51974C8.4775 3.71578 7.70842 3.14656 7.48532 3.03506C7.1272 2.85314 6.55186 2.81206 6.0998 2.94703C5.76517 3.04093 5.70646 3.09374 4.39139 4.40238C3.08219 5.71688 3.02935 5.77557 2.93542 6.11006C2.80039 6.56779 2.84149 7.13702 3.02348 7.49498C3.0998 7.64169 3.46967 8.15224 3.8454 8.63931C4.77886 9.83058 4.71429 9.6956 4.50881 10.1064C4.409 10.3 4.25636 10.658 4.1683 10.8986C4.08024 11.1392 3.97456 11.3681 3.93933 11.4033C3.90411 11.4385 3.30528 11.5383 2.61252 11.6263C1.21526 11.8023 0.915851 11.8962 0.540117 12.2718C0.41683 12.3892 0.252446 12.6239 0.158513 12.7941L0 13.0992V14.9771V16.855L0.152642 17.1836C0.240705 17.3655 0.405088 17.612 0.528376 17.7352C0.915851 18.1225 1.23288 18.2223 2.56556 18.3866C3.21722 18.4629 3.81018 18.5509 3.87476 18.5802C3.94521 18.6096 4.03914 18.7563 4.10372 18.9441C4.16243 19.1201 4.32094 19.4898 4.4501 19.7715C4.60861 20.1295 4.66732 20.3114 4.62622 20.3583C4.59687 20.3994 4.25049 20.8454 3.86301 21.3442C3.47554 21.843 3.0998 22.3712 3.02348 22.5179C2.84149 22.8759 2.80039 23.4451 2.93542 23.9028C3.02935 24.2373 3.08219 24.296 4.39139 25.6105C5.70646 26.9191 5.76517 26.9719 6.0998 27.0658C6.55186 27.2008 7.1272 27.1597 7.48532 26.9778C7.70842 26.8663 8.4775 26.2971 9.49315 25.4931L9.71037 25.3171L10.3151 25.587C10.6497 25.7337 11.0196 25.8804 11.137 25.9215C11.2544 25.9567 11.3718 26.0154 11.4012 26.0565C11.4305 26.0976 11.5303 26.6903 11.6125 27.3827C11.7886 28.7794 11.8826 29.0845 12.2701 29.4719C12.3933 29.5951 12.6399 29.7594 12.8219 29.8474L13.1507 30H15H16.8493L17.1781 29.8474C17.3601 29.7594 17.6067 29.5951 17.7299 29.4719C18.1233 29.0787 18.2172 28.7677 18.3875 27.3769C18.4697 26.6903 18.5695 26.0976 18.6047 26.0624C18.6399 26.0271 18.8689 25.9215 19.1096 25.8335C19.3503 25.7455 19.7084 25.5929 19.9022 25.4931C20.3131 25.2877 20.1781 25.2232 21.3699 26.1562C21.8571 26.5318 22.3679 26.9015 22.5147 26.9778C22.8728 27.1597 23.4423 27.2008 23.9002 27.0658C24.2348 26.9719 24.2935 26.9191 25.6086 25.6105C26.9178 24.296 26.9706 24.2373 27.0646 23.9028C27.1996 23.4451 27.1585 22.8759 26.9765 22.5179C26.8708 22.3125 26.319 21.5672 25.3738 20.3642C25.3386 20.3114 25.4031 20.1001 25.5851 19.6894C25.7319 19.3549 25.8787 18.9852 25.9198 18.8678C25.955 18.7504 26.0137 18.6331 26.0548 18.6037C26.0959 18.5744 26.6888 18.4746 27.3816 18.3925C28.7789 18.2164 29.0841 18.1225 29.4716 17.7352C29.5949 17.612 29.7593 17.3655 29.8474 17.1836L30 16.855V15.0064V13.1579L29.8474 12.8293C29.7593 12.6474 29.5949 12.4009 29.4716 12.2777C29.0841 11.8904 28.773 11.7965 27.364 11.6087C26.6654 11.5207 26.0724 11.4209 26.0431 11.3916C26.0137 11.3622 25.9198 11.1392 25.8317 10.8986C25.7436 10.658 25.591 10.3 25.4912 10.1064C25.2857 9.6956 25.2211 9.83058 26.1546 8.63931C26.5303 8.15224 26.9002 7.64169 26.9765 7.49498C27.1585 7.13702 27.1996 6.56779 27.0646 6.11006C26.9706 5.77557 26.9178 5.71688 25.6086 4.40238C24.2935 3.09374 24.2348 3.04093 23.9002 2.94703C23.4423 2.81206 22.8728 2.85314 22.5147 3.03506C22.3679 3.11135 21.8571 3.48105 21.3699 3.85662C20.1781 4.78969 20.3131 4.72514 19.9022 4.51974C19.7084 4.41998 19.3503 4.26741 19.1096 4.17938C18.8689 4.09136 18.6399 3.98573 18.6047 3.95052C18.5695 3.91531 18.4697 3.32261 18.3875 2.63015C18.2113 1.23348 18.1174 0.9342 17.7299 0.541023C17.6067 0.417788 17.3601 0.253475 17.1781 0.165449L16.8493 0.0128727L15.0881 0.00113678C14.1194 -0.00473213 13.2505 0.0128727 13.1507 0.0363464ZM16.638 1.29217C16.955 1.45061 16.9961 1.57972 17.2016 3.18177C17.3483 4.34369 17.4188 4.72514 17.501 4.83663C17.5832 4.94226 17.818 5.05376 18.3229 5.23568C18.7104 5.37065 19.3151 5.62299 19.6673 5.79317C20.225 6.06311 20.3249 6.09245 20.4834 6.04551C20.5832 6.01617 21.2055 5.57018 21.8689 5.05376C23.4834 3.79794 23.225 3.77447 24.728 5.28263C26.2368 6.78492 26.2192 6.51497 24.9393 8.16397C24.4168 8.83883 23.9706 9.47261 23.9472 9.56063C23.9237 9.6956 23.9824 9.87165 24.2172 10.3587C24.3875 10.6991 24.6282 11.2683 24.7573 11.6204C25.0333 12.395 25.0626 12.4596 25.227 12.5476C25.2975 12.5887 26.0313 12.7061 26.8532 12.8117C28.4325 13.0112 28.5616 13.0523 28.7202 13.3692C28.8258 13.5687 28.8258 16.4442 28.7202 16.6437C28.5616 16.9606 28.4325 17.0017 26.8474 17.2012C26.0254 17.3127 25.2975 17.4301 25.227 17.4653C25.0626 17.5533 25.0274 17.6178 24.7515 18.3983C24.6282 18.7563 24.3816 19.3255 24.2172 19.6718C23.9413 20.2292 23.9119 20.3173 23.9648 20.4874C23.9941 20.5872 24.4403 21.2093 24.9569 21.8724C26.2133 23.4862 26.2368 23.228 24.728 24.7302C23.225 26.2384 23.4951 26.2208 21.8454 24.9415C21.1703 24.4192 20.5362 23.9732 20.4481 23.9498C20.3131 23.9263 20.137 23.985 19.6497 24.2197C19.3092 24.3899 18.7339 24.6305 18.3757 24.7596C18.0235 24.8887 17.6712 25.0295 17.6008 25.0765C17.4188 25.1938 17.3718 25.411 17.1781 26.9719C16.9961 28.4214 16.955 28.5623 16.638 28.7207C16.4384 28.8263 13.5616 28.8263 13.362 28.7207C13.045 28.5564 13.0039 28.4332 12.8043 26.837C12.6517 25.6574 12.5871 25.2936 12.499 25.1762C12.4168 25.0706 12.1879 24.9591 11.683 24.7772C11.2896 24.6422 10.6908 24.3899 10.3444 24.2256C9.85127 23.985 9.68102 23.9263 9.54599 23.9556C9.45205 23.9732 8.86497 24.3899 8.24266 24.8711C7.61448 25.3582 7.0274 25.7983 6.93933 25.8452C6.59296 26.0213 6.48141 25.945 5.2544 24.7185C3.76908 23.228 3.78669 23.492 5.06067 21.8489C5.58317 21.174 6.02935 20.5461 6.04697 20.4581C6.07632 20.3349 6.01174 20.1412 5.78278 19.6718C5.6184 19.3255 5.37182 18.7504 5.24853 18.3925C5.11937 18.0286 4.9726 17.6765 4.92564 17.6061C4.80822 17.4242 4.591 17.3772 3.02935 17.1836C1.57926 17.0017 1.43836 16.9606 1.27984 16.6437C1.17417 16.4442 1.17417 13.5687 1.27984 13.3692C1.43836 13.0523 1.57926 13.0112 3.02935 12.8293C4.591 12.6356 4.80822 12.5887 4.92564 12.4068C4.9726 12.3363 5.1135 11.9843 5.24266 11.6322C5.37182 11.2742 5.61252 10.6991 5.78278 10.3529C6.05871 9.7895 6.08806 9.6956 6.03522 9.53129C6.00587 9.42566 5.55969 8.80362 5.04305 8.1405C3.78669 6.52671 3.76321 6.78492 5.27202 5.28263C6.77495 3.77447 6.51663 3.79794 8.13111 5.05376C8.79452 5.57018 9.41683 6.01617 9.51663 6.04551C9.68102 6.09832 9.78082 6.06898 10.3738 5.77557C10.7378 5.59952 11.3131 5.35892 11.6536 5.23568C11.9941 5.11831 12.3288 4.98334 12.3992 4.94226C12.5812 4.81903 12.6282 4.6019 12.8219 3.04093C13.0039 1.59145 13.045 1.45061 13.362 1.29217C13.4618 1.23935 13.9256 1.21588 15 1.21588C16.0744 1.21588 16.5382 1.23935 16.638 1.29217Z" fill="#7F7F7F"/>
<path d="M14.2836 8.786C12.1173 9.05594 10.2739 10.3998 9.33453 12.3833C8.20733 14.7717 8.7357 17.6296 10.6437 19.4781C12.5283 21.2973 15.2934 21.7785 17.6124 20.6752C19.0097 20.018 20.0136 19.0145 20.6653 17.6296C22.1858 14.4137 20.677 10.5934 17.3306 9.20265C16.4676 8.84468 15.1936 8.66863 14.2836 8.786ZM15.9979 10.1005C17.2954 10.3763 18.4167 11.1392 19.1623 12.2483C19.7318 13.0992 19.9901 13.9736 19.9901 15.0299C19.9842 16.7258 19.1858 18.2047 17.7533 19.1671C17.2073 19.5368 16.4793 19.8302 15.8453 19.9417C15.6163 19.9828 15.1584 20.0004 14.7416 19.9828C13.8844 19.9475 13.1917 19.7422 12.4461 19.302C11.8883 18.9734 11.131 18.2457 10.7846 17.7058C10.497 17.2657 10.2093 16.5557 10.0919 16.004C9.98619 15.5111 9.98619 14.5017 10.0919 14.0088C10.5087 12.0547 12.0175 10.5348 13.9725 10.1064C14.4422 10.0007 15.5224 10.0007 15.9979 10.1005Z" fill="#7F7F7F"/>
</svg>
